<!-- Quickie app icon - "Orbital Q (Glide)".
     A single continuous trajectory: the trail fades in just past the release
     point, sweeps counterclockwise around the warm mass at the center of
     gravity as one unbroken gradient - lavender brightening along the orbit,
     whitening on the final approach - and releases exactly at the bottom of
     the orbit, where the tangent runs flat, skimming out beneath the bowl into
     the white arrow. Bowl + tail spell a Q; the motion tells the launcher
     story (orbit, choose, go).

     This is the full-bleed 1:1 source. iOS applies the squircle mask itself,
     so there are no rounded corners here. GENERATED by
     docs/brand/make-app-icon.py (which also renders the asset-catalog PNGs at
     1024x1024: light as-is; dark glyph-only on transparency; tinted grayscale
     on transparency) - edit and rerun the script instead of this file. -->
<svg width="1024" height="1024" viewBox="0 0 100 100" xmlns="http://www.w3.org/2000/svg">
<defs>
<linearGradient id="bg" x1="0" y1="0" x2="0" y2="1"><stop offset="0" stop-color="#2E1A5E"/><stop offset="1" stop-color="#0F0726"/></linearGradient>
<radialGradient id="glow" cx="0.5" cy="0.5" r="0.5"><stop offset="0" stop-color="#FFC94F" stop-opacity="0.55"/><stop offset="1" stop-color="#FFC94F" stop-opacity="0"/></radialGradient>
<mask id="trail-alpha" maskUnits="userSpaceOnUse" x="0" y="0" width="100" height="100"><rect width="100" height="100" fill="black"/><g transform="rotate(14 50 45)"><polygon points="50,64.75 51.203,64.737 51.058,59.233 50,59.25" fill="#1F1F1F"/><polygon points="50.752,64.746 51.955,64.714 51.718,59.208 50.661,59.242" fill="#1F1F1F"/><polygon points="51.504,64.729 52.705,64.677 52.377,59.172 51.322,59.224" fill="#1F1F1F"/><polygon points="52.255,64.7 53.453,64.628 53.034,59.125 51.982,59.195" fill="#1F1F1F"/><polygon points="53.004,64.659 54.2,64.567 53.689,59.068 52.64,59.155" fill="#1F1F1F"/><polygon points="53.752,64.606 54.944,64.494 54.34,59 53.296,59.104" fill="#1F1F1F"/><polygon points="54.498,64.54 55.685,64.408 54.988,58.921 53.95,59.042" fill="#1F1F1F"/><polygon points="55.241,64.461 56.423,64.311 55.633,58.831 54.6,58.969" fill="#1F1F1F"/><polygon points="55.981,64.371 57.157,64.2 56.273,58.731 55.247,58.886" fill="#1F1F1F"/><polygon points="56.717,64.268 57.886,64.078 56.908,58.621 55.889,58.793" fill="#1F1F1F"/><polygon points="57.449,64.153 58.611,63.944 57.537,58.5 56.527,58.689" fill="#1F1F1F"/><polygon points="58.177,64.026 59.331,63.797 58.161,58.37 57.16,58.574" fill="#1F1F1F"/><polygon points="58.9,63.887 60.045,63.639 58.778,58.229 57.787,58.449" fill="#1F1F1F"/><polygon points="59.617,63.735 60.753,63.469 59.388,58.078 58.408,58.314" fill="#1F1F1F"/><polygon points="60.329,63.572 61.454,63.286 59.992,57.917 59.023,58.169" fill="#1F1F1F"/><polygon points="61.034,63.397 62.149,63.093 60.587,57.747 59.631,58.015" fill="#1F1F1F"/><polygon points="61.733,63.21 62.836,62.887 61.174,57.567 60.231,57.85" fill="#1F1F1F"/><polygon points="62.425,63.012 63.516,62.67 61.752,57.378 60.823,57.676" fill="#202020"/><polygon points="63.109,62.801 64.188,62.441 62.321,57.18 61.406,57.493" fill="#202020"/><polygon points="63.786,62.579 64.85,62.201 62.881,56.974 61.981,57.3" fill="#202020"/><polygon points="64.454,62.346 65.504,61.949 63.43,56.758 62.546,57.099" fill="#202020"/><polygon points="65.113,62.101 66.149,61.686 63.969,56.534 63.102,56.888" fill="#202020"/><polygon points="65.763,61.845 66.784,61.412 64.497,56.302 63.647,56.67" fill="#202020"/><polygon points="66.404,61.578 67.409,61.127 65.014,56.062 64.182,56.442" fill="#202020"/><polygon points="67.035,61.3 68.023,60.831 65.519,55.814 64.705,56.207" fill="#212121"/><polygon points="67.656,61.01 68.626,60.524 66.012,55.559 65.218,55.964" fill="#212121"/><polygon points="68.265,60.71 69.218,60.207 66.493,55.297 65.718,55.713" fill="#212121"/><polygon points="68.864,60.398 69.798,59.878 66.961,55.028 66.206,55.455" fill="#212121"/><polygon points="69.452,60.077 70.367,59.539 67.415,54.753 66.682,55.19" fill="#212121"/><polygon points="70.027,59.744 70.922,59.19 67.856,54.471 67.144,54.919" fill="#212121"/><polygon points="70.59,59.401 71.465,58.83 68.284,54.184 67.593,54.641" fill="#222222"/><polygon points="71.141,59.047 71.995,58.46 68.697,53.89 68.029,54.357" fill="#222222"/><polygon points="71.679,58.684 72.512,58.08 69.096,53.592 68.451,54.067" fill="#222222"/><polygon points="72.204,58.309 73.014,57.69 69.48,53.289 68.858,53.772" fill="#222222"/><polygon points="72.714,57.925 73.502,57.29 69.85,52.982 69.251,53.472" fill="#232323"/><polygon points="73.211,57.531 73.976,56.88 70.204,52.67 69.63,53.167" fill="#232323"/><polygon points="73.694,57.127 74.434,56.461 70.543,52.355 69.993,52.857" fill="#232323"/><polygon points="74.161,56.713 74.877,56.031 70.867,52.036 70.342,52.544" fill="#232323"/><polygon points="74.613,56.29 75.305,55.593 71.175,51.714 70.675,52.228" fill="#242424"/><polygon points="75.05,55.857 75.716,55.145 71.468,51.39 70.992,51.908" fill="#242424"/><polygon points="75.471,55.415 76.11,54.688 71.745,51.064 71.294,51.585" fill="#242424"/><polygon points="75.875,54.963 76.487,54.222 72.006,50.736 71.581,51.26" fill="#252525"/><polygon points="76.263,54.503 76.847,53.747 72.252,50.406 71.851,50.933" fill="#252525"/><polygon points="76.633,54.033 77.189,53.264 72.481,50.075 72.106,50.604" fill="#252525"/><polygon points="76.986,53.555 77.512,52.773 72.696,49.744 72.346,50.274" fill="#262626"/><polygon points="77.32,53.069 77.817,52.273 72.894,49.412 72.569,49.943" fill="#262626"/><polygon points="77.637,52.574 78.102,51.765 73.077,49.079 72.777,49.611" fill="#262626"/><polygon points="77.934,52.071 78.368,51.25 73.245,48.747 72.969,49.279" fill="#272727"/><polygon points="78.211,51.56 78.614,50.728 73.397,48.415 73.146,48.946" fill="#272727"/><polygon points="78.469,51.042 78.839,50.199 73.534,48.083 73.307,48.614" fill="#272727"/><polygon points="78.706,50.518 79.043,49.664 73.657,47.752 73.454,48.282" fill="#282828"/><polygon points="78.923,49.986 79.225,49.124 73.765,47.422 73.585,47.951" fill="#282828"/><polygon points="79.118,49.449 79.386,48.577 73.858,47.093 73.702,47.62" fill="#292929"/><polygon points="79.292,48.906 79.524,48.027 73.937,46.764 73.804,47.29" fill="#292929"/><polygon points="79.444,48.358 79.64,47.472 74.002,46.436 73.892,46.961" fill="#292929"/><polygon points="79.573,47.805 79.733,46.914 74.054,46.109 73.965,46.633" fill="#2A2A2A"/><polygon points="79.68,47.249 79.803,46.353 74.091,45.782 74.025,46.305" fill="#2A2A2A"/><polygon points="79.763,46.69 79.849,45.79 74.115,45.456 74.07,45.978" fill="#2B2B2B"/><polygon points="79.824,46.128 79.872,45.226 74.125,45.13 74.102,45.652" fill="#2B2B2B"/><polygon points="79.861,45.564 79.872,44.661 74.121,44.805 74.12,45.326" fill="#2C2C2C"/><polygon points="79.875,45 79.848,44.097 74.104,44.479 74.125,45" fill="#2C2C2C"/><polygon points="79.865,44.435 79.801,43.534 74.074,44.154 74.116,44.675" fill="#2D2D2D"/><polygon points="79.832,43.871 79.731,42.972 74.03,43.828 74.094,44.349" fill="#2D2D2D"/><polygon points="79.776,43.309 79.637,42.413 73.972,43.502 74.058,44.024" fill="#2E2E2E"/><polygon points="79.696,42.748 79.521,41.857 73.9,43.176 74.008,43.698" fill="#2E2E2E"/><polygon points="79.593,42.19 79.382,41.306 73.814,42.849 73.945,43.372" fill="#2F2F2F"/><polygon points="79.468,41.636 79.22,40.758 73.714,42.521 73.867,43.045" fill="#2F2F2F"/><polygon points="79.32,41.086 79.037,40.216 73.6,42.194 73.776,42.718" fill="#303030"/><polygon points="79.15,40.541 78.832,39.679 73.471,41.865 73.67,42.39" fill="#313131"/><polygon points="78.958,40 78.607,39.149 73.327,41.537 73.55,42.062" fill="#313131"/><polygon points="78.745,39.466 78.36,38.624 73.169,41.208 73.415,41.734" fill="#323232"/><polygon points="78.51,38.938 78.093,38.107 72.996,40.879 73.266,41.405" fill="#323232"/><polygon points="78.256,38.417 77.806,37.598 72.807,40.551 73.101,41.077" fill="#333333"/><polygon points="77.981,37.903 77.5,37.096 72.603,40.223 72.922,40.748" fill="#343434"/><polygon points="77.686,37.396 77.176,36.602 72.383,39.895 72.727,40.42" fill="#343434"/><polygon points="77.373,36.897 76.832,36.116 72.148,39.569 72.517,40.092" fill="#353535"/><polygon points="77.04,36.406 76.471,35.639 71.898,39.244 72.291,39.765" fill="#353535"/><polygon points="76.69,35.924 76.092,35.17 71.632,38.921 72.05,39.439" fill="#363636"/><polygon points="76.321,35.45 75.696,34.71 71.35,38.599 71.793,39.114" fill="#373737"/><polygon points="75.935,34.985 75.283,34.259 71.053,38.28 71.521,38.792" fill="#373737"/><polygon points="75.532,34.529 74.853,33.818 70.74,37.964 71.233,38.471" fill="#383838"/><polygon points="75.113,34.082 74.408,33.386 70.412,37.651 70.93,38.153" fill="#393939"/><polygon points="74.677,33.644 73.948,32.964 70.069,37.341 70.611,37.838" fill="#3A3A3A"/><polygon points="74.226,33.216 73.472,32.551 69.711,37.035 70.277,37.526" fill="#3A3A3A"/><polygon points="73.759,32.797 72.981,32.148 69.338,36.733 69.928,37.218" fill="#3B3B3B"/><polygon points="73.277,32.388 72.476,31.754 68.951,36.436 69.564,36.914" fill="#3C3C3C"/><polygon points="72.781,31.989 71.957,31.371 68.549,36.144 69.185,36.614" fill="#3D3D3D"/><polygon points="72.27,31.6 71.425,30.998 68.133,35.857 68.792,36.319" fill="#3D3D3D"/><polygon points="71.746,31.221 70.879,30.636 67.703,35.576 68.384,36.029" fill="#3E3E3E"/><polygon points="71.208,30.852 70.32,30.283 67.259,35.301 67.962,35.744" fill="#3F3F3F"/><polygon points="70.657,30.493 69.749,29.941 66.802,35.031 67.527,35.465" fill="#404040"/><polygon points="70.093,30.145 69.166,29.61 66.332,34.769 67.078,35.192" fill="#404040"/><polygon points="69.517,29.808 68.571,29.289 65.85,34.513 66.616,34.926" fill="#414141"/><polygon points="68.929,29.48 67.965,28.98 65.355,34.265 66.141,34.666" fill="#424242"/><polygon points="68.33,29.164 67.347,28.681 64.849,34.024 65.654,34.413" fill="#434343"/><polygon points="67.719,28.859 66.719,28.393 64.331,33.79 65.154,34.167" fill="#444444"/><polygon points="67.097,28.564 66.081,28.116 63.802,33.565 64.643,33.929" fill="#454545"/><polygon points="66.465,28.281 65.433,27.85 63.262,33.348 64.121,33.699" fill="#464646"/><polygon points="65.823,28.008 64.776,27.596 62.712,33.139 63.587,33.477" fill="#464646"/><polygon points="65.172,27.747 64.11,27.353 62.152,32.939 63.043,33.263" fill="#474747"/><polygon points="64.511,27.497 63.435,27.121 61.583,32.748 62.489,33.058" fill="#484848"/><polygon points="63.841,27.259 62.752,26.901 61.005,32.566 61.926,32.861" fill="#494949"/><polygon points="63.163,27.032 62.061,26.693 60.418,32.393 61.353,32.674" fill="#4A4A4A"/><polygon points="62.476,26.817 61.363,26.497 59.823,32.229 60.771,32.495" fill="#4B4B4B"/><polygon points="61.783,26.613 60.658,26.312 59.221,32.076 60.181,32.326" fill="#4C4C4C"/><polygon points="61.082,26.421 59.946,26.139 58.611,31.932 59.583,32.167" fill="#4D4D4D"/><polygon points="60.374,26.241 59.228,25.978 57.995,31.798 58.978,32.017" fill="#4E4E4E"/><polygon points="59.66,26.073 58.505,25.83 57.373,31.673 58.366,31.877" fill="#4F4F4F"/><polygon points="58.94,25.917 57.777,25.693 56.745,31.56 57.747,31.747" fill="#505050"/><polygon points="58.214,25.773 57.043,25.568 56.112,31.456 57.123,31.627" fill="#515151"/><polygon points="57.484,25.642 56.306,25.456 55.474,31.363 56.493,31.517" fill="#525252"/><polygon points="56.749,25.522 55.564,25.356 54.832,31.28 55.857,31.417" fill="#535353"/><polygon points="56.009,25.415 54.819,25.268 54.186,31.208 55.218,31.328" fill="#545454"/><polygon points="55.266,25.319 54.071,25.193 53.538,31.146 54.574,31.25" fill="#555555"/><polygon points="54.52,25.237 53.321,25.13 52.886,31.096 53.927,31.182" fill="#565656"/><polygon points="53.771,25.166 52.568,25.079 52.232,31.056 53.277,31.125" fill="#575757"/><polygon points="53.02,25.108 51.814,25.041 51.577,31.026 52.625,31.078" fill="#585858"/><polygon points="52.267,25.062 51.059,25.015 50.92,31.008 51.97,31.042" fill="#595959"/><polygon points="51.512,25.029 50.303,25.002 50.263,31 51.314,31.018" fill="#5A5A5A"/><polygon points="50.756,25.008 49.546,25.001 49.606,31.003 50.657,31.003" fill="#5B5B5B"/><polygon points="50,25 48.79,25.013 48.949,31.017 50,31" fill="#5D5D5D"/><polygon points="49.244,25.004 48.035,25.037 48.292,31.042 49.343,31.008" fill="#5E5E5E"/><polygon points="48.488,25.021 47.28,25.073 47.638,31.078 48.686,31.026" fill="#5F5F5F"/><polygon points="47.733,25.05 46.528,25.122 46.985,31.124 48.03,31.055" fill="#606060"/><polygon points="46.979,25.091 45.777,25.184 46.335,31.181 47.376,31.095" fill="#616161"/><polygon points="46.227,25.145 45.029,25.257 45.687,31.249 46.724,31.146" fill="#626262"/><polygon points="45.477,25.212 44.283,25.344 45.043,31.327 46.075,31.207" fill="#636363"/><polygon points="44.73,25.29 43.542,25.442 44.403,31.416 45.429,31.279" fill="#656565"/><polygon points="43.986,25.381 42.803,25.553 43.767,31.515 44.787,31.361" fill="#666666"/><polygon points="43.246,25.485 42.07,25.676 43.137,31.625 44.148,31.455" fill="#676767"/><polygon points="42.509,25.601 41.34,25.811 42.511,31.745 43.514,31.558" fill="#686868"/><polygon points="41.777,25.728 40.617,25.958 41.892,31.875 42.886,31.672" fill="#6A6A6A"/><polygon points="41.05,25.868 39.898,26.118 41.279,32.015 42.263,31.796" fill="#6B6B6B"/><polygon points="40.328,26.021 39.186,26.289 40.673,32.165 41.646,31.93" fill="#6C6C6C"/><polygon points="39.612,26.185 38.48,26.472 40.074,32.324 41.036,32.074" fill="#6D6D6D"/><polygon points="38.903,26.361 37.781,26.668 39.483,32.493 40.433,32.227" fill="#6F6F6F"/><polygon points="38.199,26.549 37.089,26.875 38.901,32.671 39.837,32.39" fill="#707070"/><polygon points="37.503,26.749 36.405,27.093 38.327,32.859 39.249,32.563" fill="#717171"/><polygon points="36.814,26.961 35.729,27.324 37.762,33.055 38.67,32.745" fill="#737373"/><polygon points="36.133,27.184 35.061,27.565 37.207,33.26 38.1,32.936" fill="#747474"/><polygon points="35.461,27.419 34.403,27.819 36.663,33.474 37.539,33.136" fill="#757575"/><polygon points="34.797,27.665 33.754,28.084 36.128,33.696 36.988,33.345" fill="#777777"/><polygon points="34.142,27.923 33.114,28.36 35.605,33.926 36.448,33.562" fill="#787878"/><polygon points="33.497,28.193 32.485,28.647 35.093,34.164 35.917,33.787" fill="#797979"/><polygon points="32.861,28.473 31.866,28.945 34.592,34.409 35.399,34.02" fill="#7B7B7B"/><polygon points="32.236,28.765 31.258,29.255 34.104,34.662 34.891,34.261" fill="#7C7C7C"/><polygon points="31.621,29.068 30.661,29.575 33.628,34.921 34.396,34.509" fill="#7E7E7E"/><polygon points="31.017,29.381 30.075,29.906 33.166,35.188 33.912,34.765" fill="#7F7F7F"/><polygon points="30.425,29.706 29.502,30.248 32.716,35.46 33.442,35.027" fill="#818181"/><polygon points="29.845,30.041 28.941,30.6 32.28,35.739 32.984,35.296" fill="#828282"/><polygon points="29.276,30.388 28.393,30.963 31.857,36.023 32.54,35.571" fill="#838383"/><polygon points="28.721,30.744 27.858,31.337 31.449,36.312 32.109,35.852" fill="#858585"/><polygon points="28.178,31.112 27.337,31.721 31.055,36.607 31.692,36.138" fill="#868686"/><polygon points="27.648,31.489 26.829,32.115 30.676,36.906 31.29,36.429" fill="#888888"/><polygon points="27.132,31.877 26.336,32.519 30.312,37.209 30.902,36.726" fill="#898989"/><polygon points="26.63,32.276 25.857,32.934 29.963,37.516 30.529,37.027" fill="#8B8B8B"/><polygon points="26.143,32.684 25.394,33.358 29.629,37.827 30.17,37.331" fill="#8D8D8D"/><polygon points="25.67,33.102 24.945,33.792 29.31,38.14 29.827,37.64" fill="#8E8E8E"/><polygon points="25.213,33.53 24.513,34.236 29.007,38.457 29.499,37.952" fill="#909090"/><polygon points="24.771,33.968 24.097,34.689 28.719,38.775 29.187,38.267" fill="#919191"/><polygon points="24.345,34.416 23.698,35.152 28.447,39.096 28.89,38.584" fill="#939393"/><polygon points="23.935,34.873 23.315,35.624 28.191,39.418 28.609,38.903" fill="#949494"/><polygon points="23.543,35.34 22.951,36.105 27.95,39.741 28.343,39.224" fill="#969696"/><polygon points="23.167,35.816 22.604,36.596 27.725,40.065 28.093,39.547" fill="#989898"/><polygon points="22.81,36.3 22.276,37.094 27.516,40.389 27.859,39.87" fill="#999999"/><polygon points="22.471,36.794 21.967,37.601 27.322,40.714 27.64,40.195" fill="#9B9B9B"/><polygon points="22.15,37.296 21.677,38.117 27.143,41.039 27.437,40.519" fill="#9D9D9D"/><polygon points="21.849,37.807 21.407,38.64 26.98,41.363 27.249,40.844" fill="#9E9E9E"/><polygon points="21.567,38.325 21.158,39.17 26.832,41.686 27.076,41.168" fill="#A0A0A0"/><polygon points="21.305,38.851 20.929,39.708 26.698,42.009 26.919,41.492" fill="#A2A2A2"/><polygon points="21.064,39.385 20.722,40.252 26.579,42.331 26.776,41.816" fill="#A3A3A3"/><polygon points="20.844,39.925 20.536,40.802 26.474,42.652 26.648,42.138" fill="#A5A5A5"/><polygon points="20.645,40.471 20.373,41.358 26.383,42.972 26.535,42.46" fill="#A7A7A7"/><polygon points="20.468,41.024 20.232,41.918 26.306,43.291 26.436,42.78" fill="#A8A8A8"/><polygon points="20.314,41.581 20.114,42.483 26.243,43.609 26.351,43.1" fill="#AAAAAA"/><polygon points="20.182,42.144 20.02,43.051 26.194,43.926 26.28,43.419" fill="#ACACAC"/><polygon points="20.074,42.71 19.949,43.622 26.158,44.243 26.222,43.736" fill="#AEAEAE"/><polygon points="19.989,43.279 19.901,44.196 26.135,44.559 26.178,44.053" fill="#B0B0B0"/><polygon points="19.927,43.851 19.878,44.77 26.125,44.874 26.147,44.369" fill="#B1B1B1"/><polygon points="19.889,44.425 19.878,45.345 26.129,45.189 26.129,44.685" fill="#B3B3B3"/><polygon points="19.875,45 19.902,45.92 26.145,45.504 26.125,45" fill="#B5B5B5"/><polygon points="19.885,45.575 19.95,46.493 26.175,45.819 26.134,45.315" fill="#B7B7B7"/><polygon points="19.919,46.149 20.022,47.065 26.218,46.135 26.155,45.63" fill="#B9B9B9"/><polygon points="19.976,46.722 20.117,47.634 26.274,46.451 26.19,45.945" fill="#BBBBBB"/><polygon points="20.057,47.293 20.236,48.2 26.343,46.767 26.238,46.261" fill="#BCBCBC"/><polygon points="20.162,47.861 20.377,48.761 26.427,47.084 26.3,46.577" fill="#BEBEBE"/><polygon points="20.29,48.425 20.541,49.318 26.524,47.402 26.375,46.894" fill="#C0C0C0"/><polygon points="20.44,48.985 20.728,49.87 26.635,47.721 26.464,47.211" fill="#C2C2C2"/><polygon points="20.613,49.539 20.936,50.415 26.76,48.04 26.567,47.53" fill="#C4C4C4"/><polygon points="20.809,50.089 21.166,50.955 26.9,48.36 26.683,47.849" fill="#C6C6C6"/><polygon points="21.025,50.632 21.416,51.487 27.055,48.68 26.815,48.168" fill="#C8C8C8"/><polygon points="21.263,51.168 21.687,52.012 27.224,49.001 26.96,48.488" fill="#CACACA"/><polygon points="21.522,51.698 21.978,52.529 27.408,49.322 27.121,48.809" fill="#CCCCCC"/><polygon points="21.801,52.22 22.289,53.039 27.608,49.643 27.296,49.13" fill="#CECECE"/><polygon points="22.1,52.734 22.618,53.54 27.823,49.963 27.486,49.45" fill="#D0D0D0"/><polygon points="22.418,53.24 22.967,54.033 28.053,50.283 27.692,49.771" fill="#D2D2D2"/><polygon points="22.756,53.738 23.333,54.516 28.299,50.601 27.913,50.091" fill="#D4D4D4"/><polygon points="23.111,54.227 23.717,54.991 28.56,50.919 28.149,50.41" fill="#D6D6D6"/><polygon points="23.484,54.707 24.118,55.457 28.836,51.234 28.401,50.728" fill="#D8D8D8"/><polygon points="23.875,55.178 24.536,55.913 29.128,51.548 28.669,51.045" fill="#DADADA"/><polygon points="24.283,55.64 24.97,56.359 29.436,51.859 28.951,51.36" fill="#DCDCDC"/><polygon points="24.708,56.093 25.421,56.796 29.759,52.167 29.25,51.672" fill="#DEDEDE"/><polygon points="25.149,56.535 25.887,57.224 30.096,52.472 29.563,51.982" fill="#E0E0E0"/><polygon points="25.605,56.968 26.368,57.641 30.449,52.773 29.892,52.289" fill="#E2E2E2"/><polygon points="26.077,57.392 26.863,58.048 30.817,53.071 30.236,52.593" fill="#E4E4E4"/><polygon points="26.564,57.805 27.373,58.445 31.2,53.364 30.595,52.893" fill="#E7E7E7"/><polygon points="27.066,58.208 27.897,58.832 31.597,53.652 30.968,53.189" fill="#E9E9E9"/><polygon points="27.581,58.601 28.435,59.209 32.008,53.936 31.357,53.48" fill="#EBEBEB"/><polygon points="28.111,58.984 28.986,59.575 32.433,54.214 31.759,53.766" fill="#EDEDED"/><polygon points="28.654,59.356 29.549,59.93 32.871,54.486 32.176,54.048" fill="#EFEFEF"/><polygon points="29.21,59.718 30.126,60.275 33.323,54.752 32.606,54.323" fill="#F1F1F1"/><polygon points="29.778,60.069 30.714,60.609 33.788,55.012 33.05,54.593" fill="#F2F2F2"/><polygon points="30.359,60.41 31.314,60.932 34.266,55.265 33.508,54.857" fill="#F2F2F2"/><polygon points="30.952,60.74 31.925,61.245 34.755,55.511 33.978,55.114" fill="#F2F2F2"/><polygon points="31.557,61.059 32.547,61.546 35.257,55.75 34.46,55.364" fill="#F2F2F2"/><polygon points="32.172,61.366 33.179,61.836 35.77,55.981 34.955,55.608" fill="#F2F2F2"/><polygon points="32.799,61.663 33.822,62.115 36.295,56.204 35.461,55.843" fill="#F2F2F2"/><polygon points="33.435,61.949 34.475,62.382 36.83,56.42 35.979,56.071" fill="#F2F2F2"/><polygon points="34.082,62.223 35.137,62.638 37.375,56.627 36.507,56.292" fill="#F2F2F2"/><polygon points="34.738,62.486 35.807,62.883 37.93,56.825 37.047,56.504" fill="#F2F2F2"/><polygon points="35.404,62.738 36.487,63.116 38.495,57.015 37.596,56.707" fill="#F2F2F2"/><polygon points="36.078,62.978 37.174,63.337 39.069,57.195 38.155,56.902" fill="#F2F2F2"/><polygon points="36.761,63.206 37.87,63.547 39.651,57.367 38.724,57.088" fill="#F2F2F2"/><polygon points="37.452,63.423 38.572,63.745 40.242,57.529 39.301,57.265" fill="#F2F2F2"/><polygon points="38.15,63.628 39.282,63.931 40.84,57.682 39.886,57.433" fill="#F2F2F2"/><polygon points="38.855,63.821 39.998,64.104 41.445,57.825 40.48,57.591" fill="#F2F2F2"/><polygon points="39.567,64.002 40.72,64.266 42.056,57.958 41.081,57.74" fill="#F2F2F2"/><polygon points="40.286,64.171 41.447,64.416 42.674,58.081 41.689,57.879" fill="#F2F2F2"/><polygon points="41.01,64.328 42.18,64.553 43.298,58.194 42.303,58.008" fill="#F2F2F2"/><polygon points="41.74,64.472 42.918,64.679 43.927,58.297 42.923,58.128" fill="#F2F2F2"/><polygon points="42.475,64.605 43.66,64.792 44.561,58.39 43.549,58.237" fill="#F2F2F2"/><polygon points="43.214,64.725 44.405,64.892 45.198,58.472 44.18,58.335" fill="#F2F2F2"/><polygon points="43.957,64.833 45.154,64.98 45.84,58.543 44.815,58.424" fill="#F2F2F2"/><polygon points="44.705,64.929 45.907,65.056 46.485,58.605 45.455,58.502" fill="#F2F2F2"/><polygon points="45.455,65.012 46.661,65.12 47.132,58.655 46.098,58.569" fill="#F2F2F2"/><polygon points="46.208,65.083 47.418,65.171 47.782,58.695 46.743,58.626" fill="#F2F2F2"/><polygon points="46.964,65.141 48.176,65.209 48.433,58.724 47.392,58.672" fill="#F2F2F2"/><polygon points="47.721,65.187 48.936,65.235 49.086,58.742 48.042,58.708" fill="#F2F2F2"/><polygon points="48.48,65.221 49.696,65.248 49.739,58.75 48.694,58.733" fill="#F2F2F2"/><polygon points="49.24,65.242 50,65.25 50,58.75 49.347,58.747" fill="#F2F2F2"/><g stroke="#F2F2F2" stroke-width="6.5" stroke-linecap="round" stroke-linejoin="round" fill="none"><line x1="50" y1="62" x2="77" y2="62"/><path d="M75 66.5 L82 62 L75 57.5"/></g></g></mask>
</defs>
<rect width="100" height="100" fill="url(#bg)"/>
<g transform="rotate(14 50 45)"><circle cx="50" cy="45" r="14" fill="url(#glow)"/><circle cx="50" cy="45" r="6.5" fill="#FFC94F"/></g>
<g mask="url(#trail-alpha)"><g transform="rotate(14 50 45)"><polygon points="50,64.75 51.203,64.737 51.058,59.233 50,59.25" fill="#CBB8FF"/><polygon points="50.752,64.746 51.955,64.714 51.718,59.208 50.661,59.242" fill="#CBB8FF"/><polygon points="51.504,64.729 52.705,64.677 52.377,59.172 51.322,59.224" fill="#CBB8FF"/><polygon points="52.255,64.7 53.453,64.628 53.034,59.125 51.982,59.195" fill="#CBB8FF"/><polygon points="53.004,64.659 54.2,64.567 53.689,59.068 52.64,59.155" fill="#CBB8FF"/><polygon points="53.752,64.606 54.944,64.494 54.34,59 53.296,59.104" fill="#CBB8FF"/><polygon points="54.498,64.54 55.685,64.408 54.988,58.921 53.95,59.042" fill="#CBB8FF"/><polygon points="55.241,64.461 56.423,64.311 55.633,58.831 54.6,58.969" fill="#CBB8FF"/><polygon points="55.981,64.371 57.157,64.2 56.273,58.731 55.247,58.886" fill="#CBB8FF"/><polygon points="56.717,64.268 57.886,64.078 56.908,58.621 55.889,58.793" fill="#CBB8FF"/><polygon points="57.449,64.153 58.611,63.944 57.537,58.5 56.527,58.689" fill="#CBB8FF"/><polygon points="58.177,64.026 59.331,63.797 58.161,58.37 57.16,58.574" fill="#CBB8FF"/><polygon points="58.9,63.887 60.045,63.639 58.778,58.229 57.787,58.449" fill="#CBB8FF"/><polygon points="59.617,63.735 60.753,63.469 59.388,58.078 58.408,58.314" fill="#CBB8FF"/><polygon points="60.329,63.572 61.454,63.286 59.992,57.917 59.023,58.169" fill="#CBB8FF"/><polygon points="61.034,63.397 62.149,63.093 60.587,57.747 59.631,58.015" fill="#CBB8FF"/><polygon points="61.733,63.21 62.836,62.887 61.174,57.567 60.231,57.85" fill="#CBB8FF"/><polygon points="62.425,63.012 63.516,62.67 61.752,57.378 60.823,57.676" fill="#CBB8FF"/><polygon points="63.109,62.801 64.188,62.441 62.321,57.18 61.406,57.493" fill="#CBB8FF"/><polygon points="63.786,62.579 64.85,62.201 62.881,56.974 61.981,57.3" fill="#CBB8FF"/><polygon points="64.454,62.346 65.504,61.949 63.43,56.758 62.546,57.099" fill="#CBB8FF"/><polygon points="65.113,62.101 66.149,61.686 63.969,56.534 63.102,56.888" fill="#CBB8FF"/><polygon points="65.763,61.845 66.784,61.412 64.497,56.302 63.647,56.67" fill="#CBB8FF"/><polygon points="66.404,61.578 67.409,61.127 65.014,56.062 64.182,56.442" fill="#CBB8FF"/><polygon points="67.035,61.3 68.023,60.831 65.519,55.814 64.705,56.207" fill="#CBB8FF"/><polygon points="67.656,61.01 68.626,60.524 66.012,55.559 65.218,55.964" fill="#CBB8FF"/><polygon points="68.265,60.71 69.218,60.207 66.493,55.297 65.718,55.713" fill="#CBB8FF"/><polygon points="68.864,60.398 69.798,59.878 66.961,55.028 66.206,55.455" fill="#CBB8FF"/><polygon points="69.452,60.077 70.367,59.539 67.415,54.753 66.682,55.19" fill="#CBB8FF"/><polygon points="70.027,59.744 70.922,59.19 67.856,54.471 67.144,54.919" fill="#CBB8FF"/><polygon points="70.59,59.401 71.465,58.83 68.284,54.184 67.593,54.641" fill="#CBB8FF"/><polygon points="71.141,59.047 71.995,58.46 68.697,53.89 68.029,54.357" fill="#CBB8FF"/><polygon points="71.679,58.684 72.512,58.08 69.096,53.592 68.451,54.067" fill="#CBB8FF"/><polygon points="72.204,58.309 73.014,57.69 69.48,53.289 68.858,53.772" fill="#CBB8FF"/><polygon points="72.714,57.925 73.502,57.29 69.85,52.982 69.251,53.472" fill="#CBB8FF"/><polygon points="73.211,57.531 73.976,56.88 70.204,52.67 69.63,53.167" fill="#CBB8FF"/><polygon points="73.694,57.127 74.434,56.461 70.543,52.355 69.993,52.857" fill="#CBB8FF"/><polygon points="74.161,56.713 74.877,56.031 70.867,52.036 70.342,52.544" fill="#CBB8FF"/><polygon points="74.613,56.29 75.305,55.593 71.175,51.714 70.675,52.228" fill="#CBB8FF"/><polygon points="75.05,55.857 75.716,55.145 71.468,51.39 70.992,51.908" fill="#CBB8FF"/><polygon points="75.471,55.415 76.11,54.688 71.745,51.064 71.294,51.585" fill="#CBB8FF"/><polygon points="75.875,54.963 76.487,54.222 72.006,50.736 71.581,51.26" fill="#CBB8FF"/><polygon points="76.263,54.503 76.847,53.747 72.252,50.406 71.851,50.933" fill="#CBB8FF"/><polygon points="76.633,54.033 77.189,53.264 72.481,50.075 72.106,50.604" fill="#CBB8FF"/><polygon points="76.986,53.555 77.512,52.773 72.696,49.744 72.346,50.274" fill="#CBB8FF"/><polygon points="77.32,53.069 77.817,52.273 72.894,49.412 72.569,49.943" fill="#CBB8FF"/><polygon points="77.637,52.574 78.102,51.765 73.077,49.079 72.777,49.611" fill="#CBB8FF"/><polygon points="77.934,52.071 78.368,51.25 73.245,48.747 72.969,49.279" fill="#CBB8FF"/><polygon points="78.211,51.56 78.614,50.728 73.397,48.415 73.146,48.946" fill="#CBB8FF"/><polygon points="78.469,51.042 78.839,50.199 73.534,48.083 73.307,48.614" fill="#CBB8FF"/><polygon points="78.706,50.518 79.043,49.664 73.657,47.752 73.454,48.282" fill="#CBB8FF"/><polygon points="78.923,49.986 79.225,49.124 73.765,47.422 73.585,47.951" fill="#CBB8FF"/><polygon points="79.118,49.449 79.386,48.577 73.858,47.093 73.702,47.62" fill="#CBB8FF"/><polygon points="79.292,48.906 79.524,48.027 73.937,46.764 73.804,47.29" fill="#CBB8FF"/><polygon points="79.444,48.358 79.64,47.472 74.002,46.436 73.892,46.961" fill="#CBB8FF"/><polygon points="79.573,47.805 79.733,46.914 74.054,46.109 73.965,46.633" fill="#CBB8FF"/><polygon points="79.68,47.249 79.803,46.353 74.091,45.782 74.025,46.305" fill="#CBB8FF"/><polygon points="79.763,46.69 79.849,45.79 74.115,45.456 74.07,45.978" fill="#CBB8FF"/><polygon points="79.824,46.128 79.872,45.226 74.125,45.13 74.102,45.652" fill="#CBB8FF"/><polygon points="79.861,45.564 79.872,44.661 74.121,44.805 74.12,45.326" fill="#CBB8FF"/><polygon points="79.875,45 79.848,44.097 74.104,44.479 74.125,45" fill="#CBB8FF"/><polygon points="79.865,44.435 79.801,43.534 74.074,44.154 74.116,44.675" fill="#CBB8FF"/><polygon points="79.832,43.871 79.731,42.972 74.03,43.828 74.094,44.349" fill="#CBB8FF"/><polygon points="79.776,43.309 79.637,42.413 73.972,43.502 74.058,44.024" fill="#CBB8FF"/><polygon points="79.696,42.748 79.521,41.857 73.9,43.176 74.008,43.698" fill="#CBB8FF"/><polygon points="79.593,42.19 79.382,41.306 73.814,42.849 73.945,43.372" fill="#CBB8FF"/><polygon points="79.468,41.636 79.22,40.758 73.714,42.521 73.867,43.045" fill="#CBB8FF"/><polygon points="79.32,41.086 79.037,40.216 73.6,42.194 73.776,42.718" fill="#CBB8FF"/><polygon points="79.15,40.541 78.832,39.679 73.471,41.865 73.67,42.39" fill="#CBB8FF"/><polygon points="78.958,40 78.607,39.149 73.327,41.537 73.55,42.062" fill="#CBB8FF"/><polygon points="78.745,39.466 78.36,38.624 73.169,41.208 73.415,41.734" fill="#CBB8FF"/><polygon points="78.51,38.938 78.093,38.107 72.996,40.879 73.266,41.405" fill="#CBB8FF"/><polygon points="78.256,38.417 77.806,37.598 72.807,40.551 73.101,41.077" fill="#CBB8FF"/><polygon points="77.981,37.903 77.5,37.096 72.603,40.223 72.922,40.748" fill="#CBB8FF"/><polygon points="77.686,37.396 77.176,36.602 72.383,39.895 72.727,40.42" fill="#CBB8FF"/><polygon points="77.373,36.897 76.832,36.116 72.148,39.569 72.517,40.092" fill="#CBB8FF"/><polygon points="77.04,36.406 76.471,35.639 71.898,39.244 72.291,39.765" fill="#CBB8FF"/><polygon points="76.69,35.924 76.092,35.17 71.632,38.921 72.05,39.439" fill="#CBB8FF"/><polygon points="76.321,35.45 75.696,34.71 71.35,38.599 71.793,39.114" fill="#CBB9FF"/><polygon points="75.935,34.985 75.283,34.259 71.053,38.28 71.521,38.792" fill="#CBB9FF"/><polygon points="75.532,34.529 74.853,33.818 70.74,37.964 71.233,38.471" fill="#CBB9FF"/><polygon points="75.113,34.082 74.408,33.386 70.412,37.651 70.93,38.153" fill="#CBB9FF"/><polygon points="74.677,33.644 73.948,32.964 70.069,37.341 70.611,37.838" fill="#CBB9FF"/><polygon points="74.226,33.216 73.472,32.551 69.711,37.035 70.277,37.526" fill="#CCB9FF"/><polygon points="73.759,32.797 72.981,32.148 69.338,36.733 69.928,37.218" fill="#CCB9FF"/><polygon points="73.277,32.388 72.476,31.754 68.951,36.436 69.564,36.914" fill="#CCB9FF"/><polygon points="72.781,31.989 71.957,31.371 68.549,36.144 69.185,36.614" fill="#CCB9FF"/><polygon points="72.27,31.6 71.425,30.998 68.133,35.857 68.792,36.319" fill="#CCB9FF"/><polygon points="71.746,31.221 70.879,30.636 67.703,35.576 68.384,36.029" fill="#CCB9FF"/><polygon points="71.208,30.852 70.32,30.283 67.259,35.301 67.962,35.744" fill="#CCB9FF"/><polygon points="70.657,30.493 69.749,29.941 66.802,35.031 67.527,35.465" fill="#CCB9FF"/><polygon points="70.093,30.145 69.166,29.61 66.332,34.769 67.078,35.192" fill="#CCB9FF"/><polygon points="69.517,29.808 68.571,29.289 65.85,34.513 66.616,34.926" fill="#CCB9FF"/><polygon points="68.929,29.48 67.965,28.98 65.355,34.265 66.141,34.666" fill="#CCB9FF"/><polygon points="68.33,29.164 67.347,28.681 64.849,34.024 65.654,34.413" fill="#CCB9FF"/><polygon points="67.719,28.859 66.719,28.393 64.331,33.79 65.154,34.167" fill="#CCB9FF"/><polygon points="67.097,28.564 66.081,28.116 63.802,33.565 64.643,33.929" fill="#CCB9FF"/><polygon points="66.465,28.281 65.433,27.85 63.262,33.348 64.121,33.699" fill="#CCBAFF"/><polygon points="65.823,28.008 64.776,27.596 62.712,33.139 63.587,33.477" fill="#CCBAFF"/><polygon points="65.172,27.747 64.11,27.353 62.152,32.939 63.043,33.263" fill="#CCBAFF"/><polygon points="64.511,27.497 63.435,27.121 61.583,32.748 62.489,33.058" fill="#CCBAFF"/><polygon points="63.841,27.259 62.752,26.901 61.005,32.566 61.926,32.861" fill="#CCBAFF"/><polygon points="63.163,27.032 62.061,26.693 60.418,32.393 61.353,32.674" fill="#CCBAFF"/><polygon points="62.476,26.817 61.363,26.497 59.823,32.229 60.771,32.495" fill="#CCBAFF"/><polygon points="61.783,26.613 60.658,26.312 59.221,32.076 60.181,32.326" fill="#CDBAFF"/><polygon points="61.082,26.421 59.946,26.139 58.611,31.932 59.583,32.167" fill="#CDBAFF"/><polygon points="60.374,26.241 59.228,25.978 57.995,31.798 58.978,32.017" fill="#CDBAFF"/><polygon points="59.66,26.073 58.505,25.83 57.373,31.673 58.366,31.877" fill="#CDBAFF"/><polygon points="58.94,25.917 57.777,25.693 56.745,31.56 57.747,31.747" fill="#CDBBFF"/><polygon points="58.214,25.773 57.043,25.568 56.112,31.456 57.123,31.627" fill="#CDBBFF"/><polygon points="57.484,25.642 56.306,25.456 55.474,31.363 56.493,31.517" fill="#CDBBFF"/><polygon points="56.749,25.522 55.564,25.356 54.832,31.28 55.857,31.417" fill="#CDBBFF"/><polygon points="56.009,25.415 54.819,25.268 54.186,31.208 55.218,31.328" fill="#CDBBFF"/><polygon points="55.266,25.319 54.071,25.193 53.538,31.146 54.574,31.25" fill="#CDBBFF"/><polygon points="54.52,25.237 53.321,25.13 52.886,31.096 53.927,31.182" fill="#CDBBFF"/><polygon points="53.771,25.166 52.568,25.079 52.232,31.056 53.277,31.125" fill="#CEBCFF"/><polygon points="53.02,25.108 51.814,25.041 51.577,31.026 52.625,31.078" fill="#CEBCFF"/><polygon points="52.267,25.062 51.059,25.015 50.92,31.008 51.97,31.042" fill="#CEBCFF"/><polygon points="51.512,25.029 50.303,25.002 50.263,31 51.314,31.018" fill="#CEBCFF"/><polygon points="50.756,25.008 49.546,25.001 49.606,31.003 50.657,31.003" fill="#CEBCFF"/><polygon points="50,25 48.79,25.013 48.949,31.017 50,31" fill="#CEBCFF"/><polygon points="49.244,25.004 48.035,25.037 48.292,31.042 49.343,31.008" fill="#CEBDFF"/><polygon points="48.488,25.021 47.28,25.073 47.638,31.078 48.686,31.026" fill="#CEBDFF"/><polygon points="47.733,25.05 46.528,25.122 46.985,31.124 48.03,31.055" fill="#CFBDFF"/><polygon points="46.979,25.091 45.777,25.184 46.335,31.181 47.376,31.095" fill="#CFBDFF"/><polygon points="46.227,25.145 45.029,25.257 45.687,31.249 46.724,31.146" fill="#CFBDFF"/><polygon points="45.477,25.212 44.283,25.344 45.043,31.327 46.075,31.207" fill="#CFBEFF"/><polygon points="44.73,25.29 43.542,25.442 44.403,31.416 45.429,31.279" fill="#CFBEFF"/><polygon points="43.986,25.381 42.803,25.553 43.767,31.515 44.787,31.361" fill="#CFBEFF"/><polygon points="43.246,25.485 42.07,25.676 43.137,31.625 44.148,31.455" fill="#D0BEFF"/><polygon points="42.509,25.601 41.34,25.811 42.511,31.745 43.514,31.558" fill="#D0BEFF"/><polygon points="41.777,25.728 40.617,25.958 41.892,31.875 42.886,31.672" fill="#D0BFFF"/><polygon points="41.05,25.868 39.898,26.118 41.279,32.015 42.263,31.796" fill="#D0BFFF"/><polygon points="40.328,26.021 39.186,26.289 40.673,32.165 41.646,31.93" fill="#D0BFFF"/><polygon points="39.612,26.185 38.48,26.472 40.074,32.324 41.036,32.074" fill="#D1C0FF"/><polygon points="38.903,26.361 37.781,26.668 39.483,32.493 40.433,32.227" fill="#D1C0FF"/><polygon points="38.199,26.549 37.089,26.875 38.901,32.671 39.837,32.39" fill="#D1C0FF"/><polygon points="37.503,26.749 36.405,27.093 38.327,32.859 39.249,32.563" fill="#D1C0FF"/><polygon points="36.814,26.961 35.729,27.324 37.762,33.055 38.67,32.745" fill="#D1C1FF"/><polygon points="36.133,27.184 35.061,27.565 37.207,33.26 38.1,32.936" fill="#D2C1FF"/><polygon points="35.461,27.419 34.403,27.819 36.663,33.474 37.539,33.136" fill="#D2C1FF"/><polygon points="34.797,27.665 33.754,28.084 36.128,33.696 36.988,33.345" fill="#D2C2FF"/><polygon points="34.142,27.923 33.114,28.36 35.605,33.926 36.448,33.562" fill="#D2C2FF"/><polygon points="33.497,28.193 32.485,28.647 35.093,34.164 35.917,33.787" fill="#D3C2FF"/><polygon points="32.861,28.473 31.866,28.945 34.592,34.409 35.399,34.02" fill="#D3C3FF"/><polygon points="32.236,28.765 31.258,29.255 34.104,34.662 34.891,34.261" fill="#D3C3FF"/><polygon points="31.621,29.068 30.661,29.575 33.628,34.921 34.396,34.509" fill="#D3C4FF"/><polygon points="31.017,29.381 30.075,29.906 33.166,35.188 33.912,34.765" fill="#D4C4FF"/><polygon points="30.425,29.706 29.502,30.248 32.716,35.46 33.442,35.027" fill="#D4C4FF"/><polygon points="29.845,30.041 28.941,30.6 32.28,35.739 32.984,35.296" fill="#D4C5FF"/><polygon points="29.276,30.388 28.393,30.963 31.857,36.023 32.54,35.571" fill="#D5C5FF"/><polygon points="28.721,30.744 27.858,31.337 31.449,36.312 32.109,35.852" fill="#D5C6FF"/><polygon points="28.178,31.112 27.337,31.721 31.055,36.607 31.692,36.138" fill="#D5C6FF"/><polygon points="27.648,31.489 26.829,32.115 30.676,36.906 31.29,36.429" fill="#D6C7FF"/><polygon points="27.132,31.877 26.336,32.519 30.312,37.209 30.902,36.726" fill="#D6C7FF"/><polygon points="26.63,32.276 25.857,32.934 29.963,37.516 30.529,37.027" fill="#D6C8FF"/><polygon points="26.143,32.684 25.394,33.358 29.629,37.827 30.17,37.331" fill="#D7C8FF"/><polygon points="25.67,33.102 24.945,33.792 29.31,38.14 29.827,37.64" fill="#D7C9FF"/><polygon points="25.213,33.53 24.513,34.236 29.007,38.457 29.499,37.952" fill="#D7C9FF"/><polygon points="24.771,33.968 24.097,34.689 28.719,38.775 29.187,38.267" fill="#D8CAFF"/><polygon points="24.345,34.416 23.698,35.152 28.447,39.096 28.89,38.584" fill="#D8CAFF"/><polygon points="23.935,34.873 23.315,35.624 28.191,39.418 28.609,38.903" fill="#D9CBFF"/><polygon points="23.543,35.34 22.951,36.105 27.95,39.741 28.343,39.224" fill="#D9CBFF"/><polygon points="23.167,35.816 22.604,36.596 27.725,40.065 28.093,39.547" fill="#DACCFF"/><polygon points="22.81,36.3 22.276,37.094 27.516,40.389 27.859,39.87" fill="#DACDFF"/><polygon points="22.471,36.794 21.967,37.601 27.322,40.714 27.64,40.195" fill="#DBCDFF"/><polygon points="22.15,37.296 21.677,38.117 27.143,41.039 27.437,40.519" fill="#DBCEFF"/><polygon points="21.849,37.807 21.407,38.64 26.98,41.363 27.249,40.844" fill="#DBCEFF"/><polygon points="21.567,38.325 21.158,39.17 26.832,41.686 27.076,41.168" fill="#DCCFFF"/><polygon points="21.305,38.851 20.929,39.708 26.698,42.009 26.919,41.492" fill="#DCD0FF"/><polygon points="21.064,39.385 20.722,40.252 26.579,42.331 26.776,41.816" fill="#DDD1FF"/><polygon points="20.844,39.925 20.536,40.802 26.474,42.652 26.648,42.138" fill="#DED1FF"/><polygon points="20.645,40.471 20.373,41.358 26.383,42.972 26.535,42.46" fill="#DED2FF"/><polygon points="20.468,41.024 20.232,41.918 26.306,43.291 26.436,42.78" fill="#DFD3FF"/><polygon points="20.314,41.581 20.114,42.483 26.243,43.609 26.351,43.1" fill="#DFD4FF"/><polygon points="20.182,42.144 20.02,43.051 26.194,43.926 26.28,43.419" fill="#E0D4FF"/><polygon points="20.074,42.71 19.949,43.622 26.158,44.243 26.222,43.736" fill="#E0D5FF"/><polygon points="19.989,43.279 19.901,44.196 26.135,44.559 26.178,44.053" fill="#E1D6FF"/><polygon points="19.927,43.851 19.878,44.77 26.125,44.874 26.147,44.369" fill="#E2D7FF"/><polygon points="19.889,44.425 19.878,45.345 26.129,45.189 26.129,44.685" fill="#E2D8FF"/><polygon points="19.875,45 19.902,45.92 26.145,45.504 26.125,45" fill="#E3D9FF"/><polygon points="19.885,45.575 19.95,46.493 26.175,45.819 26.134,45.315" fill="#E4DAFF"/><polygon points="19.919,46.149 20.022,47.065 26.218,46.135 26.155,45.63" fill="#E4DAFF"/><polygon points="19.976,46.722 20.117,47.634 26.274,46.451 26.19,45.945" fill="#E5DBFF"/><polygon points="20.057,47.293 20.236,48.2 26.343,46.767 26.238,46.261" fill="#E6DCFF"/><polygon points="20.162,47.861 20.377,48.761 26.427,47.084 26.3,46.577" fill="#E6DDFF"/><polygon points="20.29,48.425 20.541,49.318 26.524,47.402 26.375,46.894" fill="#E7DEFF"/><polygon points="20.44,48.985 20.728,49.87 26.635,47.721 26.464,47.211" fill="#E8DFFF"/><polygon points="20.613,49.539 20.936,50.415 26.76,48.04 26.567,47.53" fill="#E9E1FF"/><polygon points="20.809,50.089 21.166,50.955 26.9,48.36 26.683,47.849" fill="#E9E2FF"/><polygon points="21.025,50.632 21.416,51.487 27.055,48.68 26.815,48.168" fill="#EAE3FF"/><polygon points="21.263,51.168 21.687,52.012 27.224,49.001 26.96,48.488" fill="#EBE4FF"/><polygon points="21.522,51.698 21.978,52.529 27.408,49.322 27.121,48.809" fill="#ECE5FF"/><polygon points="21.801,52.22 22.289,53.039 27.608,49.643 27.296,49.13" fill="#EDE6FF"/><polygon points="22.1,52.734 22.618,53.54 27.823,49.963 27.486,49.45" fill="#EEE7FF"/><polygon points="22.418,53.24 22.967,54.033 28.053,50.283 27.692,49.771" fill="#EFE9FF"/><polygon points="22.756,53.738 23.333,54.516 28.299,50.601 27.913,50.091" fill="#F0EAFF"/><polygon points="23.111,54.227 23.717,54.991 28.56,50.919 28.149,50.41" fill="#F0EBFF"/><polygon points="23.484,54.707 24.118,55.457 28.836,51.234 28.401,50.728" fill="#F1ECFF"/><polygon points="23.875,55.178 24.536,55.913 29.128,51.548 28.669,51.045" fill="#F2EEFF"/><polygon points="24.283,55.64 24.97,56.359 29.436,51.859 28.951,51.36" fill="#F3EFFF"/><polygon points="24.708,56.093 25.421,56.796 29.759,52.167 29.25,51.672" fill="#F4F1FF"/><polygon points="25.149,56.535 25.887,57.224 30.096,52.472 29.563,51.982" fill="#F5F2FF"/><polygon points="25.605,56.968 26.368,57.641 30.449,52.773 29.892,52.289" fill="#F7F3FF"/><polygon points="26.077,57.392 26.863,58.048 30.817,53.071 30.236,52.593" fill="#F8F5FF"/><polygon points="26.564,57.805 27.373,58.445 31.2,53.364 30.595,52.893" fill="#F9F6FF"/><polygon points="27.066,58.208 27.897,58.832 31.597,53.652 30.968,53.189" fill="#FAF8FF"/><polygon points="27.581,58.601 28.435,59.209 32.008,53.936 31.357,53.48" fill="#FBF9FF"/><polygon points="28.111,58.984 28.986,59.575 32.433,54.214 31.759,53.766" fill="#FCFBFF"/><polygon points="28.654,59.356 29.549,59.93 32.871,54.486 32.176,54.048" fill="#FDFDFF"/><polygon points="29.21,59.718 30.126,60.275 33.323,54.752 32.606,54.323" fill="#FFFEFF"/><polygon points="29.778,60.069 30.714,60.609 33.788,55.012 33.05,54.593" fill="#FFFFFF"/><polygon points="30.359,60.41 31.314,60.932 34.266,55.265 33.508,54.857" fill="#FFFFFF"/><polygon points="30.952,60.74 31.925,61.245 34.755,55.511 33.978,55.114" fill="#FFFFFF"/><polygon points="31.557,61.059 32.547,61.546 35.257,55.75 34.46,55.364" fill="#FFFFFF"/><polygon points="32.172,61.366 33.179,61.836 35.77,55.981 34.955,55.608" fill="#FFFFFF"/><polygon points="32.799,61.663 33.822,62.115 36.295,56.204 35.461,55.843" fill="#FFFFFF"/><polygon points="33.435,61.949 34.475,62.382 36.83,56.42 35.979,56.071" fill="#FFFFFF"/><polygon points="34.082,62.223 35.137,62.638 37.375,56.627 36.507,56.292" fill="#FFFFFF"/><polygon points="34.738,62.486 35.807,62.883 37.93,56.825 37.047,56.504" fill="#FFFFFF"/><polygon points="35.404,62.738 36.487,63.116 38.495,57.015 37.596,56.707" fill="#FFFFFF"/><polygon points="36.078,62.978 37.174,63.337 39.069,57.195 38.155,56.902" fill="#FFFFFF"/><polygon points="36.761,63.206 37.87,63.547 39.651,57.367 38.724,57.088" fill="#FFFFFF"/><polygon points="37.452,63.423 38.572,63.745 40.242,57.529 39.301,57.265" fill="#FFFFFF"/><polygon points="38.15,63.628 39.282,63.931 40.84,57.682 39.886,57.433" fill="#FFFFFF"/><polygon points="38.855,63.821 39.998,64.104 41.445,57.825 40.48,57.591" fill="#FFFFFF"/><polygon points="39.567,64.002 40.72,64.266 42.056,57.958 41.081,57.74" fill="#FFFFFF"/><polygon points="40.286,64.171 41.447,64.416 42.674,58.081 41.689,57.879" fill="#FFFFFF"/><polygon points="41.01,64.328 42.18,64.553 43.298,58.194 42.303,58.008" fill="#FFFFFF"/><polygon points="41.74,64.472 42.918,64.679 43.927,58.297 42.923,58.128" fill="#FFFFFF"/><polygon points="42.475,64.605 43.66,64.792 44.561,58.39 43.549,58.237" fill="#FFFFFF"/><polygon points="43.214,64.725 44.405,64.892 45.198,58.472 44.18,58.335" fill="#FFFFFF"/><polygon points="43.957,64.833 45.154,64.98 45.84,58.543 44.815,58.424" fill="#FFFFFF"/><polygon points="44.705,64.929 45.907,65.056 46.485,58.605 45.455,58.502" fill="#FFFFFF"/><polygon points="45.455,65.012 46.661,65.12 47.132,58.655 46.098,58.569" fill="#FFFFFF"/><polygon points="46.208,65.083 47.418,65.171 47.782,58.695 46.743,58.626" fill="#FFFFFF"/><polygon points="46.964,65.141 48.176,65.209 48.433,58.724 47.392,58.672" fill="#FFFFFF"/><polygon points="47.721,65.187 48.936,65.235 49.086,58.742 48.042,58.708" fill="#FFFFFF"/><polygon points="48.48,65.221 49.696,65.248 49.739,58.75 48.694,58.733" fill="#FFFFFF"/><polygon points="49.24,65.242 50,65.25 50,58.75 49.347,58.747" fill="#FFFFFF"/><g stroke="#FFFFFF" stroke-width="6.5" stroke-linecap="round" stroke-linejoin="round" fill="none"><line x1="50" y1="62" x2="77" y2="62"/><path d="M75 66.5 L82 62 L75 57.5"/></g></g></g>
</svg>
