<?xml version="1.0" encoding="UTF-8"?>
<!--Quickie mark - orbital Q (glide). Generated by docs/brand/make-quickie-mark.py
    from the geometry of docs/brand/app-icon.svg; the glide arrow is extended
    beyond the orbit so the flat single-color mark keeps a visible arrow.-->
<!DOCTYPE svg
PUBLIC "-//W3C//DTD SVG 1.1//EN"
       "http://www.w3.org/Graphics/SVG/1.1/DTD/svg11.dtd">
<svg version="1.1" xmlns="http://www.w3.org/2000/svg" xmlns:xlink="http://www.w3.org/1999/xlink" viewBox="0 0 3300 2200">
 <!--glyph: "quickie.mark", point size: 100.0, template writer version: "138.0.0"-->
 <style>.defaults {-sfsymbols-variable-value-mode:color;-sfsymbols-draw-reverses-motion-groups:true}

.monochrome-0 {-sfsymbols-motion-group:0;-sfsymbols-layer-tags:564789760d3a318d}

.multicolor-0:tintColor {-sfsymbols-motion-group:0;-sfsymbols-layer-tags:564789760d3a318d}

.hierarchical-0:primary {-sfsymbols-motion-group:0;-sfsymbols-layer-tags:564789760d3a318d}

.SFSymbolsPreviewWireframe {fill:none;opacity:1.0;stroke:black;stroke-width:0.5}
</style>
 <g id="Notes">
  <rect height="2200" id="artboard" style="fill:white;opacity:1" width="3300" x="0" y="0"/>
  <line style="fill:none;stroke:black;opacity:1;stroke-width:0.5;" x1="263" x2="3036" y1="292" y2="292"/>
  <text style="stroke:none;fill:black;font-family:sans-serif;font-size:13;font-weight:bold;" transform="matrix(1 0 0 1 263 322)">Weight/Scale Variations</text>
  <text style="stroke:none;fill:black;font-family:sans-serif;font-size:13;text-anchor:middle;" transform="matrix(1 0 0 1 559.711 322)">Ultralight</text>
  <text style="stroke:none;fill:black;font-family:sans-serif;font-size:13;text-anchor:middle;" transform="matrix(1 0 0 1 856.422 322)">Thin</text>
  <text style="stroke:none;fill:black;font-family:sans-serif;font-size:13;text-anchor:middle;" transform="matrix(1 0 0 1 1153.13 322)">Light</text>
  <text style="stroke:none;fill:black;font-family:sans-serif;font-size:13;text-anchor:middle;" transform="matrix(1 0 0 1 1449.84 322)">Regular</text>
  <text style="stroke:none;fill:black;font-family:sans-serif;font-size:13;text-anchor:middle;" transform="matrix(1 0 0 1 1746.56 322)">Medium</text>
  <text style="stroke:none;fill:black;font-family:sans-serif;font-size:13;text-anchor:middle;" transform="matrix(1 0 0 1 2043.27 322)">Semibold</text>
  <text style="stroke:none;fill:black;font-family:sans-serif;font-size:13;text-anchor:middle;" transform="matrix(1 0 0 1 2339.98 322)">Bold</text>
  <text style="stroke:none;fill:black;font-family:sans-serif;font-size:13;text-anchor:middle;" transform="matrix(1 0 0 1 2636.69 322)">Heavy</text>
  <text style="stroke:none;fill:black;font-family:sans-serif;font-size:13;text-anchor:middle;" transform="matrix(1 0 0 1 2933.4 322)">Black</text>
  <line style="fill:none;stroke:black;opacity:1;stroke-width:0.5;" x1="263" x2="3036" y1="1903" y2="1903"/>
  <text style="stroke:none;fill:black;font-family:sans-serif;font-size:13;font-weight:bold;" transform="matrix(1 0 0 1 263 1953)">Design Variations</text>
  <text style="stroke:none;fill:black;font-family:sans-serif;font-size:13;" transform="matrix(1 0 0 1 263 1971)">Symbols are supported in up to nine weights and three scales.</text>
  <text style="stroke:none;fill:black;font-family:sans-serif;font-size:13;" transform="matrix(1 0 0 1 263 1989)">For optimal layout with text and other symbols, vertically align</text>
  <text style="stroke:none;fill:black;font-family:sans-serif;font-size:13;" transform="matrix(1 0 0 1 263 2007)">symbols with the adjacent text.</text>
  <text style="stroke:none;fill:black;font-family:sans-serif;font-size:13;font-weight:bold;" transform="matrix(1 0 0 1 776 1953)">Margins</text>
  <text style="stroke:none;fill:black;font-family:sans-serif;font-size:13;" transform="matrix(1 0 0 1 776 1971)">Leading and trailing margins on the left and right side of each symbol</text>
  <text style="stroke:none;fill:black;font-family:sans-serif;font-size:13;" transform="matrix(1 0 0 1 776 1989)">can be adjusted by modifying the x-location of the margin guidelines.</text>
  <text style="stroke:none;fill:black;font-family:sans-serif;font-size:13;" transform="matrix(1 0 0 1 776 2007)">Modifications are automatically applied proportionally to all</text>
  <text style="stroke:none;fill:black;font-family:sans-serif;font-size:13;" transform="matrix(1 0 0 1 776 2025)">scales and weights.</text>
  <text style="stroke:none;fill:black;font-family:sans-serif;font-size:13;font-weight:bold;" transform="matrix(1 0 0 1 1289 1953)">Exporting</text>
  <text style="stroke:none;fill:black;font-family:sans-serif;font-size:13;" transform="matrix(1 0 0 1 1289 1971)">Symbols should be outlined when exporting to ensure the</text>
  <text style="stroke:none;fill:black;font-family:sans-serif;font-size:13;" transform="matrix(1 0 0 1 1289 1989)">design is preserved when submitting to Xcode.</text>
  <text id="template-version" style="stroke:none;fill:black;font-family:sans-serif;font-size:13;text-anchor:end;" transform="matrix(1 0 0 1 3036 1933)">Template v.7.0</text>
  <text style="stroke:none;fill:black;font-family:sans-serif;font-size:13;text-anchor:end;" transform="matrix(1 0 0 1 3036 1951)">Requires Xcode 26 or greater</text>
  <text id="descriptive-name" style="stroke:none;fill:black;font-family:sans-serif;font-size:13;text-anchor:end;" transform="matrix(1 0 0 1 3036 1969)">Generated from docs/brand/app-icon.svg</text>
  <text style="stroke:none;fill:black;font-family:sans-serif;font-size:13;text-anchor:end;" transform="matrix(1 0 0 1 3036 1987)">Typeset at 100.0 points</text>
  <text style="stroke:none;fill:black;font-family:sans-serif;font-size:13;" transform="matrix(1 0 0 1 263 726)">Small</text>
  <text style="stroke:none;fill:black;font-family:sans-serif;font-size:13;" transform="matrix(1 0 0 1 263 1156)">Medium</text>
  <text style="stroke:none;fill:black;font-family:sans-serif;font-size:13;" transform="matrix(1 0 0 1 263 1586)">Large</text>
 </g>
 <g id="Guides">
  <g id="H-reference" style="fill:#27AAE1;stroke:none;" transform="matrix(1 0 0 1 339 696)">
   <path d="M0.993654 0L3.63775 0L29.3281-67.1323L30.0303-67.1323L30.0303-70.459L28.1226-70.459ZM11.6885-24.4799L46.9815-24.4799L46.2315-26.7285L12.4385-26.7285ZM55.1196 0L57.7637 0L30.6382-70.459L29.4326-70.459L29.4326-67.1323Z"/>
  </g>
  <line id="Baseline-S" style="fill:none;stroke:#27AAE1;opacity:1;stroke-width:0.5;" x1="263" x2="3036" y1="696" y2="696"/>
  <line id="Capline-S" style="fill:none;stroke:#27AAE1;opacity:1;stroke-width:0.5;" x1="263" x2="3036" y1="625.541" y2="625.541"/>
  <g id="H-reference" style="fill:#27AAE1;stroke:none;" transform="matrix(1 0 0 1 339 1126)">
   <path d="M0.993654 0L3.63775 0L29.3281-67.1323L30.0303-67.1323L30.0303-70.459L28.1226-70.459ZM11.6885-24.4799L46.9815-24.4799L46.2315-26.7285L12.4385-26.7285ZM55.1196 0L57.7637 0L30.6382-70.459L29.4326-70.459L29.4326-67.1323Z"/>
  </g>
  <line id="Baseline-M" style="fill:none;stroke:#27AAE1;opacity:1;stroke-width:0.5;" x1="263" x2="3036" y1="1126" y2="1126"/>
  <line id="Capline-M" style="fill:none;stroke:#27AAE1;opacity:1;stroke-width:0.5;" x1="263" x2="3036" y1="1055.54" y2="1055.54"/>
  <g id="H-reference" style="fill:#27AAE1;stroke:none;" transform="matrix(1 0 0 1 339 1556)">
   <path d="M0.993654 0L3.63775 0L29.3281-67.1323L30.0303-67.1323L30.0303-70.459L28.1226-70.459ZM11.6885-24.4799L46.9815-24.4799L46.2315-26.7285L12.4385-26.7285ZM55.1196 0L57.7637 0L30.6382-70.459L29.4326-70.459L29.4326-67.1323Z"/>
  </g>
  <line id="Baseline-L" style="fill:none;stroke:#27AAE1;opacity:1;stroke-width:0.5;" x1="263" x2="3036" y1="1556" y2="1556"/>
  <line id="Capline-L" style="fill:none;stroke:#27AAE1;opacity:1;stroke-width:0.5;" x1="263" x2="3036" y1="1485.54" y2="1485.54"/>
  <line id="right-margin-Regular-M" style="fill:none;stroke:#00AEEF;stroke-width:0.5;opacity:1.0;" x1="1505.06" x2="1505.06" y1="1030.79" y2="1150.12"/>
  <line id="left-margin-Regular-M" style="fill:none;stroke:#00AEEF;stroke-width:0.5;opacity:1.0;" x1="1394.63" x2="1394.63" y1="1030.79" y2="1150.12"/>
  <line id="right-margin-Black-S" style="fill:none;stroke:#00AEEF;stroke-width:0.5;opacity:1.0;" x1="2977.572" x2="2977.572" y1="600.785" y2="720.121"/>
  <line id="left-margin-Black-S" style="fill:none;stroke:#00AEEF;stroke-width:0.5;opacity:1.0;" x1="2889.228" x2="2889.228" y1="600.785" y2="720.121"/>
  <line id="right-margin-Regular-S" style="fill:none;stroke:#00AEEF;stroke-width:0.5;opacity:1.0;" x1="1494.017" x2="1494.017" y1="600.785" y2="720.121"/>
  <line id="left-margin-Regular-S" style="fill:none;stroke:#00AEEF;stroke-width:0.5;opacity:1.0;" x1="1405.673" x2="1405.673" y1="600.785" y2="720.121"/>
  <line id="right-margin-Ultralight-S" style="fill:none;stroke:#00AEEF;stroke-width:0.5;opacity:1.0;" x1="603.883" x2="603.883" y1="600.785" y2="720.121"/>
  <line id="left-margin-Ultralight-S" style="fill:none;stroke:#00AEEF;stroke-width:0.5;opacity:1.0;" x1="515.539" x2="515.539" y1="600.785" y2="720.121"/>
 </g>
 <g id="Symbols">
  <g id="Regular-M" transform="matrix(1 0 0 1 1394.63 1126)">
   <path class="monochrome-0 multicolor-0:tintColor hierarchical-0:primary SFSymbolsPreviewWireframe" d="M101.268 -31.52C96.632 -12.929 70.361 -3.471 42.589 -10.395C14.816 -17.32 -3.94 -38.004 0.696 -56.596C5.331 -75.187 31.602 -84.645 59.375 -77.72C87.147 -70.796 105.903 -50.111 101.268 -31.52ZM90.462 -34.214C93.61 -46.838 78.485 -61.479 56.681 -66.915C34.876 -72.352 14.648 -66.525 11.501 -53.902C8.353 -41.278 23.478 -26.637 45.283 -21.201C67.087 -15.764 87.315 -21.59 90.462 -34.214ZM61.787 -41.364C60.299 -35.396 54.255 -31.765 48.288 -33.253C42.32 -34.74 38.689 -40.784 40.176 -46.752C41.664 -52.72 47.708 -56.351 53.676 -54.863C59.643 -53.375 63.275 -47.331 61.787 -41.364ZM38.633 -22.858L103.465 -6.694L100.771 4.111L35.939 -12.053ZM110.43 0.781L88.828 9.52L95.46 -17.077Z"/>
  </g>
  <g id="Black-S" transform="matrix(1 0 0 1 2889.228 696)">
   <path class="monochrome-0 multicolor-0:tintColor hierarchical-0:primary SFSymbolsPreviewWireframe" d="M81.014 -32.262C77.306 -17.389 56.289 -9.823 34.071 -15.362C11.853 -20.902 -3.152 -37.449 0.556 -52.322C4.265 -67.195 25.282 -74.762 47.5 -69.222C69.718 -63.683 84.722 -47.135 81.014 -32.262ZM72.37 -34.417C74.888 -44.516 62.788 -56.229 45.345 -60.578C27.901 -64.927 11.719 -60.266 9.201 -50.167C6.683 -40.068 18.782 -28.356 36.226 -24.006C53.67 -19.657 69.852 -24.318 72.37 -34.417ZM49.43 -40.137C48.239 -35.363 43.404 -32.458 38.63 -33.648C33.856 -34.838 30.951 -39.673 32.141 -44.447C33.331 -49.222 38.167 -52.127 42.941 -50.936C47.715 -49.746 50.62 -44.911 49.43 -40.137ZM30.907 -25.333L82.772 -12.401L80.617 -3.757L28.751 -16.688ZM88.344 -6.421L71.062 0.57L76.368 -20.708Z"/>
  </g>
  <g id="Regular-S" transform="matrix(1 0 0 1 1405.673 696)">
   <path class="monochrome-0 multicolor-0:tintColor hierarchical-0:primary SFSymbolsPreviewWireframe" d="M81.014 -32.262C77.306 -17.389 56.289 -9.823 34.071 -15.362C11.853 -20.902 -3.152 -37.449 0.556 -52.322C4.265 -67.195 25.282 -74.762 47.5 -69.222C69.718 -63.683 84.722 -47.135 81.014 -32.262ZM72.37 -34.417C74.888 -44.516 62.788 -56.229 45.345 -60.578C27.901 -64.927 11.719 -60.266 9.201 -50.167C6.683 -40.068 18.782 -28.356 36.226 -24.006C53.67 -19.657 69.852 -24.318 72.37 -34.417ZM49.43 -40.137C48.239 -35.363 43.404 -32.458 38.63 -33.648C33.856 -34.838 30.951 -39.673 32.141 -44.447C33.331 -49.222 38.167 -52.127 42.941 -50.936C47.715 -49.746 50.62 -44.911 49.43 -40.137ZM30.907 -25.333L82.772 -12.401L80.617 -3.757L28.751 -16.688ZM88.344 -6.421L71.062 0.57L76.368 -20.708Z"/>
  </g>
  <g id="Ultralight-S" transform="matrix(1 0 0 1 515.539 696)">
   <path class="monochrome-0 multicolor-0:tintColor hierarchical-0:primary SFSymbolsPreviewWireframe" d="M81.014 -32.262C77.306 -17.389 56.289 -9.823 34.071 -15.362C11.853 -20.902 -3.152 -37.449 0.556 -52.322C4.265 -67.195 25.282 -74.762 47.5 -69.222C69.718 -63.683 84.722 -47.135 81.014 -32.262ZM72.37 -34.417C74.888 -44.516 62.788 -56.229 45.345 -60.578C27.901 -64.927 11.719 -60.266 9.201 -50.167C6.683 -40.068 18.782 -28.356 36.226 -24.006C53.67 -19.657 69.852 -24.318 72.37 -34.417ZM49.43 -40.137C48.239 -35.363 43.404 -32.458 38.63 -33.648C33.856 -34.838 30.951 -39.673 32.141 -44.447C33.331 -49.222 38.167 -52.127 42.941 -50.936C47.715 -49.746 50.62 -44.911 49.43 -40.137ZM30.907 -25.333L82.772 -12.401L80.617 -3.757L28.751 -16.688ZM88.344 -6.421L71.062 0.57L76.368 -20.708Z"/>
  </g>
 </g>
</svg>
