<?xml version="1.0" encoding="UTF-8"?>
<!--Quickie mark - orbital Q (glide). Generated by docs/brand/make-quickie-mark.py
    from the geometry of docs/brand/app-icon.svg; the glide arrow is extended
    beyond the orbit so the flat single-color mark keeps a visible arrow, and
    the icon trail's fade is baked in as per-layer opacities along the orbit.-->
<!DOCTYPE svg
PUBLIC "-//W3C//DTD SVG 1.1//EN"
       "http://www.w3.org/Graphics/SVG/1.1/DTD/svg11.dtd">
<svg version="1.1" xmlns="http://www.w3.org/2000/svg" xmlns:xlink="http://www.w3.org/1999/xlink" viewBox="0 0 3300 2200">
 <!--glyph: "quickie.mark", point size: 100.0, template writer version: "138.0.0"-->
 <style>.defaults {-sfsymbols-variable-value-mode:color;-sfsymbols-draw-reverses-motion-groups:true}

.monochrome-0 {-sfsymbols-motion-group:0;-sfsymbols-layer-tags:564789760d3a318d;opacity:0.3}

.multicolor-0:tintColor {-sfsymbols-motion-group:0;-sfsymbols-layer-tags:564789760d3a318d;opacity:0.3}

.hierarchical-0:primary {-sfsymbols-motion-group:0;-sfsymbols-layer-tags:564789760d3a318d;opacity:0.3}

.monochrome-1 {-sfsymbols-motion-group:0;-sfsymbols-layer-tags:564789760d3a318e;opacity:0.31}

.multicolor-1:tintColor {-sfsymbols-motion-group:0;-sfsymbols-layer-tags:564789760d3a318e;opacity:0.31}

.hierarchical-1:primary {-sfsymbols-motion-group:0;-sfsymbols-layer-tags:564789760d3a318e;opacity:0.31}

.monochrome-2 {-sfsymbols-motion-group:0;-sfsymbols-layer-tags:564789760d3a318f;opacity:0.32}

.multicolor-2:tintColor {-sfsymbols-motion-group:0;-sfsymbols-layer-tags:564789760d3a318f;opacity:0.32}

.hierarchical-2:primary {-sfsymbols-motion-group:0;-sfsymbols-layer-tags:564789760d3a318f;opacity:0.32}

.monochrome-3 {-sfsymbols-motion-group:0;-sfsymbols-layer-tags:564789760d3a3190;opacity:0.33}

.multicolor-3:tintColor {-sfsymbols-motion-group:0;-sfsymbols-layer-tags:564789760d3a3190;opacity:0.33}

.hierarchical-3:primary {-sfsymbols-motion-group:0;-sfsymbols-layer-tags:564789760d3a3190;opacity:0.33}

.monochrome-4 {-sfsymbols-motion-group:0;-sfsymbols-layer-tags:564789760d3a3191;opacity:0.35}

.multicolor-4:tintColor {-sfsymbols-motion-group:0;-sfsymbols-layer-tags:564789760d3a3191;opacity:0.35}

.hierarchical-4:primary {-sfsymbols-motion-group:0;-sfsymbols-layer-tags:564789760d3a3191;opacity:0.35}

.monochrome-5 {-sfsymbols-motion-group:0;-sfsymbols-layer-tags:564789760d3a3192;opacity:0.38}

.multicolor-5:tintColor {-sfsymbols-motion-group:0;-sfsymbols-layer-tags:564789760d3a3192;opacity:0.38}

.hierarchical-5:primary {-sfsymbols-motion-group:0;-sfsymbols-layer-tags:564789760d3a3192;opacity:0.38}

.monochrome-6 {-sfsymbols-motion-group:0;-sfsymbols-layer-tags:564789760d3a3193;opacity:0.41}

.multicolor-6:tintColor {-sfsymbols-motion-group:0;-sfsymbols-layer-tags:564789760d3a3193;opacity:0.41}

.hierarchical-6:primary {-sfsymbols-motion-group:0;-sfsymbols-layer-tags:564789760d3a3193;opacity:0.41}

.monochrome-7 {-sfsymbols-motion-group:0;-sfsymbols-layer-tags:564789760d3a3194;opacity:0.45}

.multicolor-7:tintColor {-sfsymbols-motion-group:0;-sfsymbols-layer-tags:564789760d3a3194;opacity:0.45}

.hierarchical-7:primary {-sfsymbols-motion-group:0;-sfsymbols-layer-tags:564789760d3a3194;opacity:0.45}

.monochrome-8 {-sfsymbols-motion-group:0;-sfsymbols-layer-tags:564789760d3a3195;opacity:0.5}

.multicolor-8:tintColor {-sfsymbols-motion-group:0;-sfsymbols-layer-tags:564789760d3a3195;opacity:0.5}

.hierarchical-8:primary {-sfsymbols-motion-group:0;-sfsymbols-layer-tags:564789760d3a3195;opacity:0.5}

.monochrome-9 {-sfsymbols-motion-group:0;-sfsymbols-layer-tags:564789760d3a3196;opacity:0.55}

.multicolor-9:tintColor {-sfsymbols-motion-group:0;-sfsymbols-layer-tags:564789760d3a3196;opacity:0.55}

.hierarchical-9:primary {-sfsymbols-motion-group:0;-sfsymbols-layer-tags:564789760d3a3196;opacity:0.55}

.monochrome-10 {-sfsymbols-motion-group:0;-sfsymbols-layer-tags:564789760d3a3197;opacity:0.61}

.multicolor-10:tintColor {-sfsymbols-motion-group:0;-sfsymbols-layer-tags:564789760d3a3197;opacity:0.61}

.hierarchical-10:primary {-sfsymbols-motion-group:0;-sfsymbols-layer-tags:564789760d3a3197;opacity:0.61}

.monochrome-11 {-sfsymbols-motion-group:0;-sfsymbols-layer-tags:564789760d3a3198;opacity:0.67}

.multicolor-11:tintColor {-sfsymbols-motion-group:0;-sfsymbols-layer-tags:564789760d3a3198;opacity:0.67}

.hierarchical-11:primary {-sfsymbols-motion-group:0;-sfsymbols-layer-tags:564789760d3a3198;opacity:0.67}

.monochrome-12 {-sfsymbols-motion-group:0;-sfsymbols-layer-tags:564789760d3a3199;opacity:0.74}

.multicolor-12:tintColor {-sfsymbols-motion-group:0;-sfsymbols-layer-tags:564789760d3a3199;opacity:0.74}

.hierarchical-12:primary {-sfsymbols-motion-group:0;-sfsymbols-layer-tags:564789760d3a3199;opacity:0.74}

.monochrome-13 {-sfsymbols-motion-group:0;-sfsymbols-layer-tags:564789760d3a319a;opacity:0.82}

.multicolor-13:tintColor {-sfsymbols-motion-group:0;-sfsymbols-layer-tags:564789760d3a319a;opacity:0.82}

.hierarchical-13:primary {-sfsymbols-motion-group:0;-sfsymbols-layer-tags:564789760d3a319a;opacity:0.82}

.monochrome-14 {-sfsymbols-motion-group:0;-sfsymbols-layer-tags:564789760d3a319b;opacity:0.91}

.multicolor-14:tintColor {-sfsymbols-motion-group:0;-sfsymbols-layer-tags:564789760d3a319b;opacity:0.91}

.hierarchical-14:primary {-sfsymbols-motion-group:0;-sfsymbols-layer-tags:564789760d3a319b;opacity:0.91}

.monochrome-15 {-sfsymbols-motion-group:0;-sfsymbols-layer-tags:564789760d3a319c}

.multicolor-15:tintColor {-sfsymbols-motion-group:0;-sfsymbols-layer-tags:564789760d3a319c}

.hierarchical-15:primary {-sfsymbols-motion-group:0;-sfsymbols-layer-tags:564789760d3a319c}

.monochrome-16 {-sfsymbols-motion-group:0;-sfsymbols-layer-tags:564789760d3a319d}

.multicolor-16:tintColor {-sfsymbols-motion-group:0;-sfsymbols-layer-tags:564789760d3a319d}

.hierarchical-16:primary {-sfsymbols-motion-group:0;-sfsymbols-layer-tags:564789760d3a319d}

.SFSymbolsPreviewWireframe {fill:none;opacity:1.0;stroke:black;stroke-width:0.5}
</style>
 <g id="Notes">
  <rect height="2200" id="artboard" style="fill:white;opacity:1" width="3300" x="0" y="0"/>
  <line style="fill:none;stroke:black;opacity:1;stroke-width:0.5;" x1="263" x2="3036" y1="292" y2="292"/>
  <text style="stroke:none;fill:black;font-family:sans-serif;font-size:13;font-weight:bold;" transform="matrix(1 0 0 1 263 322)">Weight/Scale Variations</text>
  <text style="stroke:none;fill:black;font-family:sans-serif;font-size:13;text-anchor:middle;" transform="matrix(1 0 0 1 559.711 322)">Ultralight</text>
  <text style="stroke:none;fill:black;font-family:sans-serif;font-size:13;text-anchor:middle;" transform="matrix(1 0 0 1 856.422 322)">Thin</text>
  <text style="stroke:none;fill:black;font-family:sans-serif;font-size:13;text-anchor:middle;" transform="matrix(1 0 0 1 1153.13 322)">Light</text>
  <text style="stroke:none;fill:black;font-family:sans-serif;font-size:13;text-anchor:middle;" transform="matrix(1 0 0 1 1449.84 322)">Regular</text>
  <text style="stroke:none;fill:black;font-family:sans-serif;font-size:13;text-anchor:middle;" transform="matrix(1 0 0 1 1746.56 322)">Medium</text>
  <text style="stroke:none;fill:black;font-family:sans-serif;font-size:13;text-anchor:middle;" transform="matrix(1 0 0 1 2043.27 322)">Semibold</text>
  <text style="stroke:none;fill:black;font-family:sans-serif;font-size:13;text-anchor:middle;" transform="matrix(1 0 0 1 2339.98 322)">Bold</text>
  <text style="stroke:none;fill:black;font-family:sans-serif;font-size:13;text-anchor:middle;" transform="matrix(1 0 0 1 2636.69 322)">Heavy</text>
  <text style="stroke:none;fill:black;font-family:sans-serif;font-size:13;text-anchor:middle;" transform="matrix(1 0 0 1 2933.4 322)">Black</text>
  <line style="fill:none;stroke:black;opacity:1;stroke-width:0.5;" x1="263" x2="3036" y1="1903" y2="1903"/>
  <text style="stroke:none;fill:black;font-family:sans-serif;font-size:13;font-weight:bold;" transform="matrix(1 0 0 1 263 1953)">Design Variations</text>
  <text style="stroke:none;fill:black;font-family:sans-serif;font-size:13;" transform="matrix(1 0 0 1 263 1971)">Symbols are supported in up to nine weights and three scales.</text>
  <text style="stroke:none;fill:black;font-family:sans-serif;font-size:13;" transform="matrix(1 0 0 1 263 1989)">For optimal layout with text and other symbols, vertically align</text>
  <text style="stroke:none;fill:black;font-family:sans-serif;font-size:13;" transform="matrix(1 0 0 1 263 2007)">symbols with the adjacent text.</text>
  <text style="stroke:none;fill:black;font-family:sans-serif;font-size:13;font-weight:bold;" transform="matrix(1 0 0 1 776 1953)">Margins</text>
  <text style="stroke:none;fill:black;font-family:sans-serif;font-size:13;" transform="matrix(1 0 0 1 776 1971)">Leading and trailing margins on the left and right side of each symbol</text>
  <text style="stroke:none;fill:black;font-family:sans-serif;font-size:13;" transform="matrix(1 0 0 1 776 1989)">can be adjusted by modifying the x-location of the margin guidelines.</text>
  <text style="stroke:none;fill:black;font-family:sans-serif;font-size:13;" transform="matrix(1 0 0 1 776 2007)">Modifications are automatically applied proportionally to all</text>
  <text style="stroke:none;fill:black;font-family:sans-serif;font-size:13;" transform="matrix(1 0 0 1 776 2025)">scales and weights.</text>
  <text style="stroke:none;fill:black;font-family:sans-serif;font-size:13;font-weight:bold;" transform="matrix(1 0 0 1 1289 1953)">Exporting</text>
  <text style="stroke:none;fill:black;font-family:sans-serif;font-size:13;" transform="matrix(1 0 0 1 1289 1971)">Symbols should be outlined when exporting to ensure the</text>
  <text style="stroke:none;fill:black;font-family:sans-serif;font-size:13;" transform="matrix(1 0 0 1 1289 1989)">design is preserved when submitting to Xcode.</text>
  <text id="template-version" style="stroke:none;fill:black;font-family:sans-serif;font-size:13;text-anchor:end;" transform="matrix(1 0 0 1 3036 1933)">Template v.7.0</text>
  <text style="stroke:none;fill:black;font-family:sans-serif;font-size:13;text-anchor:end;" transform="matrix(1 0 0 1 3036 1951)">Requires Xcode 26 or greater</text>
  <text id="descriptive-name" style="stroke:none;fill:black;font-family:sans-serif;font-size:13;text-anchor:end;" transform="matrix(1 0 0 1 3036 1969)">Generated from docs/brand/app-icon.svg</text>
  <text style="stroke:none;fill:black;font-family:sans-serif;font-size:13;text-anchor:end;" transform="matrix(1 0 0 1 3036 1987)">Typeset at 100.0 points</text>
  <text style="stroke:none;fill:black;font-family:sans-serif;font-size:13;" transform="matrix(1 0 0 1 263 726)">Small</text>
  <text style="stroke:none;fill:black;font-family:sans-serif;font-size:13;" transform="matrix(1 0 0 1 263 1156)">Medium</text>
  <text style="stroke:none;fill:black;font-family:sans-serif;font-size:13;" transform="matrix(1 0 0 1 263 1586)">Large</text>
 </g>
 <g id="Guides">
  <g id="H-reference" style="fill:#27AAE1;stroke:none;" transform="matrix(1 0 0 1 339 696)">
   <path d="M0.993654 0L3.63775 0L29.3281-67.1323L30.0303-67.1323L30.0303-70.459L28.1226-70.459ZM11.6885-24.4799L46.9815-24.4799L46.2315-26.7285L12.4385-26.7285ZM55.1196 0L57.7637 0L30.6382-70.459L29.4326-70.459L29.4326-67.1323Z"/>
  </g>
  <line id="Baseline-S" style="fill:none;stroke:#27AAE1;opacity:1;stroke-width:0.5;" x1="263" x2="3036" y1="696" y2="696"/>
  <line id="Capline-S" style="fill:none;stroke:#27AAE1;opacity:1;stroke-width:0.5;" x1="263" x2="3036" y1="625.541" y2="625.541"/>
  <g id="H-reference" style="fill:#27AAE1;stroke:none;" transform="matrix(1 0 0 1 339 1126)">
   <path d="M0.993654 0L3.63775 0L29.3281-67.1323L30.0303-67.1323L30.0303-70.459L28.1226-70.459ZM11.6885-24.4799L46.9815-24.4799L46.2315-26.7285L12.4385-26.7285ZM55.1196 0L57.7637 0L30.6382-70.459L29.4326-70.459L29.4326-67.1323Z"/>
  </g>
  <line id="Baseline-M" style="fill:none;stroke:#27AAE1;opacity:1;stroke-width:0.5;" x1="263" x2="3036" y1="1126" y2="1126"/>
  <line id="Capline-M" style="fill:none;stroke:#27AAE1;opacity:1;stroke-width:0.5;" x1="263" x2="3036" y1="1055.54" y2="1055.54"/>
  <g id="H-reference" style="fill:#27AAE1;stroke:none;" transform="matrix(1 0 0 1 339 1556)">
   <path d="M0.993654 0L3.63775 0L29.3281-67.1323L30.0303-67.1323L30.0303-70.459L28.1226-70.459ZM11.6885-24.4799L46.9815-24.4799L46.2315-26.7285L12.4385-26.7285ZM55.1196 0L57.7637 0L30.6382-70.459L29.4326-70.459L29.4326-67.1323Z"/>
  </g>
  <line id="Baseline-L" style="fill:none;stroke:#27AAE1;opacity:1;stroke-width:0.5;" x1="263" x2="3036" y1="1556" y2="1556"/>
  <line id="Capline-L" style="fill:none;stroke:#27AAE1;opacity:1;stroke-width:0.5;" x1="263" x2="3036" y1="1485.54" y2="1485.54"/>
  <line id="right-margin-Regular-M" style="fill:none;stroke:#00AEEF;stroke-width:0.5;opacity:1.0;" x1="1506.945" x2="1506.945" y1="1030.79" y2="1150.12"/>
  <line id="left-margin-Regular-M" style="fill:none;stroke:#00AEEF;stroke-width:0.5;opacity:1.0;" x1="1392.745" x2="1392.745" y1="1030.79" y2="1150.12"/>
  <line id="right-margin-Black-S" style="fill:none;stroke:#00AEEF;stroke-width:0.5;opacity:1.0;" x1="2979.08" x2="2979.08" y1="600.785" y2="720.121"/>
  <line id="left-margin-Black-S" style="fill:none;stroke:#00AEEF;stroke-width:0.5;opacity:1.0;" x1="2887.72" x2="2887.72" y1="600.785" y2="720.121"/>
  <line id="right-margin-Regular-S" style="fill:none;stroke:#00AEEF;stroke-width:0.5;opacity:1.0;" x1="1495.525" x2="1495.525" y1="600.785" y2="720.121"/>
  <line id="left-margin-Regular-S" style="fill:none;stroke:#00AEEF;stroke-width:0.5;opacity:1.0;" x1="1404.165" x2="1404.165" y1="600.785" y2="720.121"/>
  <line id="right-margin-Ultralight-S" style="fill:none;stroke:#00AEEF;stroke-width:0.5;opacity:1.0;" x1="605.391" x2="605.391" y1="600.785" y2="720.121"/>
  <line id="left-margin-Ultralight-S" style="fill:none;stroke:#00AEEF;stroke-width:0.5;opacity:1.0;" x1="514.031" x2="514.031" y1="600.785" y2="720.121"/>
 </g>
 <g id="Symbols">
  <g id="Regular-M" transform="matrix(1 0 0 1 1392.745 1126)">
   <path class="monochrome-0 multicolor-0:tintColor hierarchical-0:primary SFSymbolsPreviewWireframe" d="M41.928 -11.473C48.43 -9.852 55.081 -9.104 61.503 -9.272L59.883 -20.115C54.885 -20.16 49.685 -20.838 44.581 -22.111Z"/>
   <path class="monochrome-1 multicolor-1:tintColor hierarchical-1:primary SFSymbolsPreviewWireframe" d="M61.503 -9.272C67.925 -9.44 73.991 -10.52 79.356 -12.451L73.709 -21.849C69.579 -20.659 64.88 -20.07 59.883 -20.115Z"/>
   <path class="monochrome-2 multicolor-2:tintColor hierarchical-2:primary SFSymbolsPreviewWireframe" d="M79.356 -12.451C84.72 -14.383 89.278 -17.127 92.768 -20.527L83.955 -27.049C81.321 -24.806 77.839 -23.039 73.709 -21.849Z"/>
   <path class="monochrome-3 multicolor-3:tintColor hierarchical-3:primary SFSymbolsPreviewWireframe" d="M92.768 -20.527C96.259 -23.928 98.614 -27.918 99.699 -32.27L89.061 -34.923C88.324 -31.968 86.589 -29.292 83.955 -27.049Z"/>
   <path class="monochrome-4 multicolor-4:tintColor hierarchical-4:primary SFSymbolsPreviewWireframe" d="M99.699 -32.27C100.784 -36.623 100.578 -41.252 99.092 -45.893L88.249 -44.272C89.522 -41.055 89.798 -37.878 89.061 -34.923Z"/>
   <path class="monochrome-5 multicolor-5:tintColor hierarchical-5:primary SFSymbolsPreviewWireframe" d="M99.092 -45.893C97.607 -50.534 94.871 -55.097 91.041 -59.32L81.644 -53.674C84.732 -50.684 86.977 -47.489 88.249 -44.272Z"/>
   <path class="monochrome-6 multicolor-6:tintColor hierarchical-6:primary SFSymbolsPreviewWireframe" d="M91.041 -59.32C87.211 -63.544 82.362 -67.346 76.771 -70.509L70.25 -61.696C74.684 -59.389 78.555 -56.663 81.644 -53.674Z"/>
   <path class="monochrome-7 multicolor-7:tintColor hierarchical-7:primary SFSymbolsPreviewWireframe" d="M76.771 -70.509C71.18 -73.672 64.956 -76.134 58.455 -77.755L55.802 -67.117C60.907 -65.845 65.816 -64.003 70.25 -61.696Z"/>
   <path class="monochrome-8 multicolor-8:tintColor hierarchical-8:primary SFSymbolsPreviewWireframe" d="M58.455 -77.755C51.953 -79.376 45.302 -80.124 38.88 -79.956L40.5 -69.113C45.498 -69.068 50.698 -68.39 55.802 -67.117Z"/>
   <path class="monochrome-9 multicolor-9:tintColor hierarchical-9:primary SFSymbolsPreviewWireframe" d="M38.88 -79.956C32.458 -79.788 26.392 -78.708 21.027 -76.777L26.674 -67.379C30.804 -68.569 35.503 -69.158 40.5 -69.113Z"/>
   <path class="monochrome-10 multicolor-10:tintColor hierarchical-10:primary SFSymbolsPreviewWireframe" d="M21.027 -76.777C15.663 -74.846 11.105 -72.101 7.615 -68.701L16.428 -62.179C19.062 -64.423 22.544 -66.189 26.674 -67.379Z"/>
   <path class="monochrome-11 multicolor-11:tintColor hierarchical-11:primary SFSymbolsPreviewWireframe" d="M7.615 -68.701C4.124 -65.3 1.769 -61.31 0.684 -56.958L11.322 -54.305C12.059 -57.261 13.794 -59.936 16.428 -62.179Z"/>
   <path class="monochrome-12 multicolor-12:tintColor hierarchical-12:primary SFSymbolsPreviewWireframe" d="M0.684 -56.958C-0.401 -52.605 -0.195 -47.977 1.29 -43.335L12.134 -44.956C10.861 -48.173 10.585 -51.35 11.322 -54.305Z"/>
   <path class="monochrome-13 multicolor-13:tintColor hierarchical-13:primary SFSymbolsPreviewWireframe" d="M1.29 -43.335C2.776 -38.694 5.512 -34.132 9.342 -29.908L18.739 -35.555C15.651 -38.544 13.406 -41.739 12.134 -44.956Z"/>
   <path class="monochrome-14 multicolor-14:tintColor hierarchical-14:primary SFSymbolsPreviewWireframe" d="M9.342 -29.908C13.171 -25.684 18.02 -21.882 23.612 -18.719L30.133 -27.532C25.699 -29.839 21.828 -32.565 18.739 -35.555Z"/>
   <path class="monochrome-15 multicolor-15:tintColor hierarchical-15:primary SFSymbolsPreviewWireframe" d="M23.612 -18.719C29.203 -15.556 35.427 -13.094 41.928 -11.473L44.581 -22.111C39.476 -23.383 34.567 -25.226 30.133 -27.532Z"/>
   <path class="monochrome-16 multicolor-16:tintColor hierarchical-16:primary SFSymbolsPreviewWireframe" d="M60.829 -41.962C59.365 -36.087 53.414 -32.511 47.539 -33.976C41.664 -35.441 38.089 -41.391 39.553 -47.266C41.018 -53.142 46.969 -56.717 52.844 -55.252C58.719 -53.787 62.294 -47.837 60.829 -41.962ZM38.034 -23.743L101.862 -7.829C104.8 -7.096 106.587 -4.121 105.855 -1.184C105.122 1.754 102.147 3.542 99.21 2.809L35.382 -13.105C32.444 -13.837 30.657 -16.813 31.389 -19.75C32.122 -22.688 35.097 -24.475 38.034 -23.743ZM103.091 -14.448L112.711 -4.227C113.989 -2.868 114.489 -0.953 114.038 0.857C113.587 2.666 112.246 4.123 110.48 4.722L97.187 9.23C94.32 10.203 91.208 8.667 90.235 5.799C89.263 2.932 90.799 -0.18 93.666 -1.153L98.883 -2.922L95.107 -6.934C93.032 -9.138 93.137 -12.608 95.342 -14.683C97.546 -16.758 101.016 -16.652 103.091 -14.448Z"/>
  </g>
  <g id="Black-S" transform="matrix(1 0 0 1 2887.72 696)">
   <path class="monochrome-0 multicolor-0:tintColor hierarchical-0:primary SFSymbolsPreviewWireframe" d="M33.543 -16.224C38.744 -14.927 44.065 -14.329 49.202 -14.463L47.906 -23.138C43.908 -23.174 39.748 -23.716 35.665 -24.734Z"/>
   <path class="monochrome-1 multicolor-1:tintColor hierarchical-1:primary SFSymbolsPreviewWireframe" d="M49.202 -14.463C54.34 -14.598 59.193 -15.462 63.484 -17.007L58.967 -24.525C55.663 -23.573 51.904 -23.102 47.906 -23.138Z"/>
   <path class="monochrome-2 multicolor-2:tintColor hierarchical-2:primary SFSymbolsPreviewWireframe" d="M63.484 -17.007C67.776 -18.552 71.422 -20.747 74.215 -23.468L67.164 -28.685C65.057 -26.89 62.271 -25.477 58.967 -24.525Z"/>
   <path class="monochrome-3 multicolor-3:tintColor hierarchical-3:primary SFSymbolsPreviewWireframe" d="M74.215 -23.468C77.007 -26.188 78.891 -29.381 79.759 -32.862L71.249 -34.984C70.659 -32.62 69.271 -30.48 67.164 -28.685Z"/>
   <path class="monochrome-4 multicolor-4:tintColor hierarchical-4:primary SFSymbolsPreviewWireframe" d="M79.759 -32.862C80.627 -36.344 80.462 -40.047 79.274 -43.76L70.599 -42.464C71.618 -39.89 71.838 -37.348 71.249 -34.984Z"/>
   <path class="monochrome-5 multicolor-5:tintColor hierarchical-5:primary SFSymbolsPreviewWireframe" d="M79.274 -43.76C78.086 -47.473 75.897 -51.123 72.833 -54.502L65.315 -49.985C67.786 -47.593 69.581 -45.037 70.599 -42.464Z"/>
   <path class="monochrome-6 multicolor-6:tintColor hierarchical-6:primary SFSymbolsPreviewWireframe" d="M72.833 -54.502C69.769 -57.881 65.89 -60.923 61.417 -63.453L56.2 -56.403C59.747 -54.557 62.844 -52.376 65.315 -49.985Z"/>
   <path class="monochrome-7 multicolor-7:tintColor hierarchical-7:primary SFSymbolsPreviewWireframe" d="M61.417 -63.453C56.944 -65.984 51.965 -67.953 46.764 -69.25L44.642 -60.74C48.725 -59.722 52.653 -58.248 56.2 -56.403Z"/>
   <path class="monochrome-8 multicolor-8:tintColor hierarchical-8:primary SFSymbolsPreviewWireframe" d="M46.764 -69.25C41.562 -70.547 36.241 -71.145 31.104 -71.011L32.4 -62.336C36.399 -62.301 40.558 -61.758 44.642 -60.74Z"/>
   <path class="monochrome-9 multicolor-9:tintColor hierarchical-9:primary SFSymbolsPreviewWireframe" d="M31.104 -71.011C25.966 -70.877 21.113 -70.012 16.822 -68.467L21.339 -60.949C24.643 -61.901 28.402 -62.372 32.4 -62.336Z"/>
   <path class="monochrome-10 multicolor-10:tintColor hierarchical-10:primary SFSymbolsPreviewWireframe" d="M16.822 -68.467C12.53 -66.922 8.884 -64.727 6.092 -62.006L13.142 -56.789C15.25 -58.584 18.035 -59.997 21.339 -60.949Z"/>
   <path class="monochrome-11 multicolor-11:tintColor hierarchical-11:primary SFSymbolsPreviewWireframe" d="M6.092 -62.006C3.299 -59.286 1.415 -56.094 0.547 -52.612L9.058 -50.49C9.647 -52.854 11.035 -54.995 13.142 -56.789Z"/>
   <path class="monochrome-12 multicolor-12:tintColor hierarchical-12:primary SFSymbolsPreviewWireframe" d="M0.547 -52.612C-0.321 -49.13 -0.156 -45.427 1.032 -41.714L9.707 -43.011C8.689 -45.584 8.468 -48.126 9.058 -50.49Z"/>
   <path class="monochrome-13 multicolor-13:tintColor hierarchical-13:primary SFSymbolsPreviewWireframe" d="M1.032 -41.714C2.221 -38.001 4.409 -34.351 7.473 -30.972L14.991 -35.49C12.521 -37.881 10.725 -40.437 9.707 -43.011Z"/>
   <path class="monochrome-14 multicolor-14:tintColor hierarchical-14:primary SFSymbolsPreviewWireframe" d="M7.473 -30.972C10.537 -27.593 14.416 -24.552 18.889 -22.021L24.106 -29.072C20.559 -30.917 17.462 -33.098 14.991 -35.49Z"/>
   <path class="monochrome-15 multicolor-15:tintColor hierarchical-15:primary SFSymbolsPreviewWireframe" d="M18.889 -22.021C23.362 -19.491 28.342 -17.521 33.543 -16.224L35.665 -24.734C31.581 -25.753 27.654 -27.226 24.106 -29.072Z"/>
   <path class="monochrome-16 multicolor-16:tintColor hierarchical-16:primary SFSymbolsPreviewWireframe" d="M48.664 -40.615C47.492 -35.915 42.731 -33.055 38.031 -34.227C33.331 -35.399 30.471 -40.159 31.643 -44.859C32.815 -49.559 37.575 -52.419 42.275 -51.248C46.975 -50.076 49.835 -45.315 48.664 -40.615ZM30.427 -26.04L81.49 -13.309C83.84 -12.723 85.27 -10.343 84.684 -7.993C84.098 -5.643 81.718 -4.213 79.368 -4.799L28.306 -17.53C25.955 -18.116 24.525 -20.496 25.111 -22.846C25.697 -25.196 28.077 -26.626 30.427 -26.04ZM82.473 -18.604L90.169 -10.427C91.191 -9.341 91.591 -7.809 91.23 -6.361C90.869 -4.913 89.797 -3.748 88.384 -3.269L77.75 0.338C75.456 1.116 72.966 -0.113 72.188 -2.406C71.41 -4.7 72.639 -7.19 74.933 -7.968L79.106 -9.384L76.086 -12.593C74.426 -14.357 74.51 -17.132 76.273 -18.792C78.037 -20.452 80.813 -20.368 82.473 -18.604Z"/>
  </g>
  <g id="Regular-S" transform="matrix(1 0 0 1 1404.165 696)">
   <path class="monochrome-0 multicolor-0:tintColor hierarchical-0:primary SFSymbolsPreviewWireframe" d="M33.543 -16.224C38.744 -14.927 44.065 -14.329 49.202 -14.463L47.906 -23.138C43.908 -23.174 39.748 -23.716 35.665 -24.734Z"/>
   <path class="monochrome-1 multicolor-1:tintColor hierarchical-1:primary SFSymbolsPreviewWireframe" d="M49.202 -14.463C54.34 -14.598 59.193 -15.462 63.484 -17.007L58.967 -24.525C55.663 -23.573 51.904 -23.102 47.906 -23.138Z"/>
   <path class="monochrome-2 multicolor-2:tintColor hierarchical-2:primary SFSymbolsPreviewWireframe" d="M63.484 -17.007C67.776 -18.552 71.422 -20.747 74.215 -23.468L67.164 -28.685C65.057 -26.89 62.271 -25.477 58.967 -24.525Z"/>
   <path class="monochrome-3 multicolor-3:tintColor hierarchical-3:primary SFSymbolsPreviewWireframe" d="M74.215 -23.468C77.007 -26.188 78.891 -29.381 79.759 -32.862L71.249 -34.984C70.659 -32.62 69.271 -30.48 67.164 -28.685Z"/>
   <path class="monochrome-4 multicolor-4:tintColor hierarchical-4:primary SFSymbolsPreviewWireframe" d="M79.759 -32.862C80.627 -36.344 80.462 -40.047 79.274 -43.76L70.599 -42.464C71.618 -39.89 71.838 -37.348 71.249 -34.984Z"/>
   <path class="monochrome-5 multicolor-5:tintColor hierarchical-5:primary SFSymbolsPreviewWireframe" d="M79.274 -43.76C78.086 -47.473 75.897 -51.123 72.833 -54.502L65.315 -49.985C67.786 -47.593 69.581 -45.037 70.599 -42.464Z"/>
   <path class="monochrome-6 multicolor-6:tintColor hierarchical-6:primary SFSymbolsPreviewWireframe" d="M72.833 -54.502C69.769 -57.881 65.89 -60.923 61.417 -63.453L56.2 -56.403C59.747 -54.557 62.844 -52.376 65.315 -49.985Z"/>
   <path class="monochrome-7 multicolor-7:tintColor hierarchical-7:primary SFSymbolsPreviewWireframe" d="M61.417 -63.453C56.944 -65.984 51.965 -67.953 46.764 -69.25L44.642 -60.74C48.725 -59.722 52.653 -58.248 56.2 -56.403Z"/>
   <path class="monochrome-8 multicolor-8:tintColor hierarchical-8:primary SFSymbolsPreviewWireframe" d="M46.764 -69.25C41.562 -70.547 36.241 -71.145 31.104 -71.011L32.4 -62.336C36.399 -62.301 40.558 -61.758 44.642 -60.74Z"/>
   <path class="monochrome-9 multicolor-9:tintColor hierarchical-9:primary SFSymbolsPreviewWireframe" d="M31.104 -71.011C25.966 -70.877 21.113 -70.012 16.822 -68.467L21.339 -60.949C24.643 -61.901 28.402 -62.372 32.4 -62.336Z"/>
   <path class="monochrome-10 multicolor-10:tintColor hierarchical-10:primary SFSymbolsPreviewWireframe" d="M16.822 -68.467C12.53 -66.922 8.884 -64.727 6.092 -62.006L13.142 -56.789C15.25 -58.584 18.035 -59.997 21.339 -60.949Z"/>
   <path class="monochrome-11 multicolor-11:tintColor hierarchical-11:primary SFSymbolsPreviewWireframe" d="M6.092 -62.006C3.299 -59.286 1.415 -56.094 0.547 -52.612L9.058 -50.49C9.647 -52.854 11.035 -54.995 13.142 -56.789Z"/>
   <path class="monochrome-12 multicolor-12:tintColor hierarchical-12:primary SFSymbolsPreviewWireframe" d="M0.547 -52.612C-0.321 -49.13 -0.156 -45.427 1.032 -41.714L9.707 -43.011C8.689 -45.584 8.468 -48.126 9.058 -50.49Z"/>
   <path class="monochrome-13 multicolor-13:tintColor hierarchical-13:primary SFSymbolsPreviewWireframe" d="M1.032 -41.714C2.221 -38.001 4.409 -34.351 7.473 -30.972L14.991 -35.49C12.521 -37.881 10.725 -40.437 9.707 -43.011Z"/>
   <path class="monochrome-14 multicolor-14:tintColor hierarchical-14:primary SFSymbolsPreviewWireframe" d="M7.473 -30.972C10.537 -27.593 14.416 -24.552 18.889 -22.021L24.106 -29.072C20.559 -30.917 17.462 -33.098 14.991 -35.49Z"/>
   <path class="monochrome-15 multicolor-15:tintColor hierarchical-15:primary SFSymbolsPreviewWireframe" d="M18.889 -22.021C23.362 -19.491 28.342 -17.521 33.543 -16.224L35.665 -24.734C31.581 -25.753 27.654 -27.226 24.106 -29.072Z"/>
   <path class="monochrome-16 multicolor-16:tintColor hierarchical-16:primary SFSymbolsPreviewWireframe" d="M48.664 -40.615C47.492 -35.915 42.731 -33.055 38.031 -34.227C33.331 -35.399 30.471 -40.159 31.643 -44.859C32.815 -49.559 37.575 -52.419 42.275 -51.248C46.975 -50.076 49.835 -45.315 48.664 -40.615ZM30.427 -26.04L81.49 -13.309C83.84 -12.723 85.27 -10.343 84.684 -7.993C84.098 -5.643 81.718 -4.213 79.368 -4.799L28.306 -17.53C25.955 -18.116 24.525 -20.496 25.111 -22.846C25.697 -25.196 28.077 -26.626 30.427 -26.04ZM82.473 -18.604L90.169 -10.427C91.191 -9.341 91.591 -7.809 91.23 -6.361C90.869 -4.913 89.797 -3.748 88.384 -3.269L77.75 0.338C75.456 1.116 72.966 -0.113 72.188 -2.406C71.41 -4.7 72.639 -7.19 74.933 -7.968L79.106 -9.384L76.086 -12.593C74.426 -14.357 74.51 -17.132 76.273 -18.792C78.037 -20.452 80.813 -20.368 82.473 -18.604Z"/>
  </g>
  <g id="Ultralight-S" transform="matrix(1 0 0 1 514.031 696)">
   <path class="monochrome-0 multicolor-0:tintColor hierarchical-0:primary SFSymbolsPreviewWireframe" d="M33.543 -16.224C38.744 -14.927 44.065 -14.329 49.202 -14.463L47.906 -23.138C43.908 -23.174 39.748 -23.716 35.665 -24.734Z"/>
   <path class="monochrome-1 multicolor-1:tintColor hierarchical-1:primary SFSymbolsPreviewWireframe" d="M49.202 -14.463C54.34 -14.598 59.193 -15.462 63.484 -17.007L58.967 -24.525C55.663 -23.573 51.904 -23.102 47.906 -23.138Z"/>
   <path class="monochrome-2 multicolor-2:tintColor hierarchical-2:primary SFSymbolsPreviewWireframe" d="M63.484 -17.007C67.776 -18.552 71.422 -20.747 74.215 -23.468L67.164 -28.685C65.057 -26.89 62.271 -25.477 58.967 -24.525Z"/>
   <path class="monochrome-3 multicolor-3:tintColor hierarchical-3:primary SFSymbolsPreviewWireframe" d="M74.215 -23.468C77.007 -26.188 78.891 -29.381 79.759 -32.862L71.249 -34.984C70.659 -32.62 69.271 -30.48 67.164 -28.685Z"/>
   <path class="monochrome-4 multicolor-4:tintColor hierarchical-4:primary SFSymbolsPreviewWireframe" d="M79.759 -32.862C80.627 -36.344 80.462 -40.047 79.274 -43.76L70.599 -42.464C71.618 -39.89 71.838 -37.348 71.249 -34.984Z"/>
   <path class="monochrome-5 multicolor-5:tintColor hierarchical-5:primary SFSymbolsPreviewWireframe" d="M79.274 -43.76C78.086 -47.473 75.897 -51.123 72.833 -54.502L65.315 -49.985C67.786 -47.593 69.581 -45.037 70.599 -42.464Z"/>
   <path class="monochrome-6 multicolor-6:tintColor hierarchical-6:primary SFSymbolsPreviewWireframe" d="M72.833 -54.502C69.769 -57.881 65.89 -60.923 61.417 -63.453L56.2 -56.403C59.747 -54.557 62.844 -52.376 65.315 -49.985Z"/>
   <path class="monochrome-7 multicolor-7:tintColor hierarchical-7:primary SFSymbolsPreviewWireframe" d="M61.417 -63.453C56.944 -65.984 51.965 -67.953 46.764 -69.25L44.642 -60.74C48.725 -59.722 52.653 -58.248 56.2 -56.403Z"/>
   <path class="monochrome-8 multicolor-8:tintColor hierarchical-8:primary SFSymbolsPreviewWireframe" d="M46.764 -69.25C41.562 -70.547 36.241 -71.145 31.104 -71.011L32.4 -62.336C36.399 -62.301 40.558 -61.758 44.642 -60.74Z"/>
   <path class="monochrome-9 multicolor-9:tintColor hierarchical-9:primary SFSymbolsPreviewWireframe" d="M31.104 -71.011C25.966 -70.877 21.113 -70.012 16.822 -68.467L21.339 -60.949C24.643 -61.901 28.402 -62.372 32.4 -62.336Z"/>
   <path class="monochrome-10 multicolor-10:tintColor hierarchical-10:primary SFSymbolsPreviewWireframe" d="M16.822 -68.467C12.53 -66.922 8.884 -64.727 6.092 -62.006L13.142 -56.789C15.25 -58.584 18.035 -59.997 21.339 -60.949Z"/>
   <path class="monochrome-11 multicolor-11:tintColor hierarchical-11:primary SFSymbolsPreviewWireframe" d="M6.092 -62.006C3.299 -59.286 1.415 -56.094 0.547 -52.612L9.058 -50.49C9.647 -52.854 11.035 -54.995 13.142 -56.789Z"/>
   <path class="monochrome-12 multicolor-12:tintColor hierarchical-12:primary SFSymbolsPreviewWireframe" d="M0.547 -52.612C-0.321 -49.13 -0.156 -45.427 1.032 -41.714L9.707 -43.011C8.689 -45.584 8.468 -48.126 9.058 -50.49Z"/>
   <path class="monochrome-13 multicolor-13:tintColor hierarchical-13:primary SFSymbolsPreviewWireframe" d="M1.032 -41.714C2.221 -38.001 4.409 -34.351 7.473 -30.972L14.991 -35.49C12.521 -37.881 10.725 -40.437 9.707 -43.011Z"/>
   <path class="monochrome-14 multicolor-14:tintColor hierarchical-14:primary SFSymbolsPreviewWireframe" d="M7.473 -30.972C10.537 -27.593 14.416 -24.552 18.889 -22.021L24.106 -29.072C20.559 -30.917 17.462 -33.098 14.991 -35.49Z"/>
   <path class="monochrome-15 multicolor-15:tintColor hierarchical-15:primary SFSymbolsPreviewWireframe" d="M18.889 -22.021C23.362 -19.491 28.342 -17.521 33.543 -16.224L35.665 -24.734C31.581 -25.753 27.654 -27.226 24.106 -29.072Z"/>
   <path class="monochrome-16 multicolor-16:tintColor hierarchical-16:primary SFSymbolsPreviewWireframe" d="M48.664 -40.615C47.492 -35.915 42.731 -33.055 38.031 -34.227C33.331 -35.399 30.471 -40.159 31.643 -44.859C32.815 -49.559 37.575 -52.419 42.275 -51.248C46.975 -50.076 49.835 -45.315 48.664 -40.615ZM30.427 -26.04L81.49 -13.309C83.84 -12.723 85.27 -10.343 84.684 -7.993C84.098 -5.643 81.718 -4.213 79.368 -4.799L28.306 -17.53C25.955 -18.116 24.525 -20.496 25.111 -22.846C25.697 -25.196 28.077 -26.626 30.427 -26.04ZM82.473 -18.604L90.169 -10.427C91.191 -9.341 91.591 -7.809 91.23 -6.361C90.869 -4.913 89.797 -3.748 88.384 -3.269L77.75 0.338C75.456 1.116 72.966 -0.113 72.188 -2.406C71.41 -4.7 72.639 -7.19 74.933 -7.968L79.106 -9.384L76.086 -12.593C74.426 -14.357 74.51 -17.132 76.273 -18.792C78.037 -20.452 80.813 -20.368 82.473 -18.604Z"/>
  </g>
 </g>
</svg>
