<?xml version="1.0" encoding="UTF-8"?>
<!--Quickie mark - orbital Q (glide). Generated by docs/brand/make-quickie-mark.py
    from the geometry of docs/brand/app-icon.svg; the glide arrow is extended
    beyond the orbit so the flat single-color mark keeps a visible arrow.-->
<!DOCTYPE svg
PUBLIC "-//W3C//DTD SVG 1.1//EN"
       "http://www.w3.org/Graphics/SVG/1.1/DTD/svg11.dtd">
<svg version="1.1" xmlns="http://www.w3.org/2000/svg" xmlns:xlink="http://www.w3.org/1999/xlink" viewBox="0 0 3300 2200">
 <!--glyph: "quickie.mark", point size: 100.0, template writer version: "138.0.0"-->
 <style>.defaults {-sfsymbols-variable-value-mode:color;-sfsymbols-draw-reverses-motion-groups:true}

.monochrome-0 {-sfsymbols-motion-group:0;-sfsymbols-layer-tags:564789760d3a318d}

.multicolor-0:tintColor {-sfsymbols-motion-group:0;-sfsymbols-layer-tags:564789760d3a318d}

.hierarchical-0:primary {-sfsymbols-motion-group:0;-sfsymbols-layer-tags:564789760d3a318d}

.SFSymbolsPreviewWireframe {fill:none;opacity:1.0;stroke:black;stroke-width:0.5}
</style>
 <g id="Notes">
  <rect height="2200" id="artboard" style="fill:white;opacity:1" width="3300" x="0" y="0"/>
  <line style="fill:none;stroke:black;opacity:1;stroke-width:0.5;" x1="263" x2="3036" y1="292" y2="292"/>
  <text style="stroke:none;fill:black;font-family:sans-serif;font-size:13;font-weight:bold;" transform="matrix(1 0 0 1 263 322)">Weight/Scale Variations</text>
  <text style="stroke:none;fill:black;font-family:sans-serif;font-size:13;text-anchor:middle;" transform="matrix(1 0 0 1 559.711 322)">Ultralight</text>
  <text style="stroke:none;fill:black;font-family:sans-serif;font-size:13;text-anchor:middle;" transform="matrix(1 0 0 1 856.422 322)">Thin</text>
  <text style="stroke:none;fill:black;font-family:sans-serif;font-size:13;text-anchor:middle;" transform="matrix(1 0 0 1 1153.13 322)">Light</text>
  <text style="stroke:none;fill:black;font-family:sans-serif;font-size:13;text-anchor:middle;" transform="matrix(1 0 0 1 1449.84 322)">Regular</text>
  <text style="stroke:none;fill:black;font-family:sans-serif;font-size:13;text-anchor:middle;" transform="matrix(1 0 0 1 1746.56 322)">Medium</text>
  <text style="stroke:none;fill:black;font-family:sans-serif;font-size:13;text-anchor:middle;" transform="matrix(1 0 0 1 2043.27 322)">Semibold</text>
  <text style="stroke:none;fill:black;font-family:sans-serif;font-size:13;text-anchor:middle;" transform="matrix(1 0 0 1 2339.98 322)">Bold</text>
  <text style="stroke:none;fill:black;font-family:sans-serif;font-size:13;text-anchor:middle;" transform="matrix(1 0 0 1 2636.69 322)">Heavy</text>
  <text style="stroke:none;fill:black;font-family:sans-serif;font-size:13;text-anchor:middle;" transform="matrix(1 0 0 1 2933.4 322)">Black</text>
  <line style="fill:none;stroke:black;opacity:1;stroke-width:0.5;" x1="263" x2="3036" y1="1903" y2="1903"/>
  <text style="stroke:none;fill:black;font-family:sans-serif;font-size:13;font-weight:bold;" transform="matrix(1 0 0 1 263 1953)">Design Variations</text>
  <text style="stroke:none;fill:black;font-family:sans-serif;font-size:13;" transform="matrix(1 0 0 1 263 1971)">Symbols are supported in up to nine weights and three scales.</text>
  <text style="stroke:none;fill:black;font-family:sans-serif;font-size:13;" transform="matrix(1 0 0 1 263 1989)">For optimal layout with text and other symbols, vertically align</text>
  <text style="stroke:none;fill:black;font-family:sans-serif;font-size:13;" transform="matrix(1 0 0 1 263 2007)">symbols with the adjacent text.</text>
  <text style="stroke:none;fill:black;font-family:sans-serif;font-size:13;font-weight:bold;" transform="matrix(1 0 0 1 776 1953)">Margins</text>
  <text style="stroke:none;fill:black;font-family:sans-serif;font-size:13;" transform="matrix(1 0 0 1 776 1971)">Leading and trailing margins on the left and right side of each symbol</text>
  <text style="stroke:none;fill:black;font-family:sans-serif;font-size:13;" transform="matrix(1 0 0 1 776 1989)">can be adjusted by modifying the x-location of the margin guidelines.</text>
  <text style="stroke:none;fill:black;font-family:sans-serif;font-size:13;" transform="matrix(1 0 0 1 776 2007)">Modifications are automatically applied proportionally to all</text>
  <text style="stroke:none;fill:black;font-family:sans-serif;font-size:13;" transform="matrix(1 0 0 1 776 2025)">scales and weights.</text>
  <text style="stroke:none;fill:black;font-family:sans-serif;font-size:13;font-weight:bold;" transform="matrix(1 0 0 1 1289 1953)">Exporting</text>
  <text style="stroke:none;fill:black;font-family:sans-serif;font-size:13;" transform="matrix(1 0 0 1 1289 1971)">Symbols should be outlined when exporting to ensure the</text>
  <text style="stroke:none;fill:black;font-family:sans-serif;font-size:13;" transform="matrix(1 0 0 1 1289 1989)">design is preserved when submitting to Xcode.</text>
  <text id="template-version" style="stroke:none;fill:black;font-family:sans-serif;font-size:13;text-anchor:end;" transform="matrix(1 0 0 1 3036 1933)">Template v.7.0</text>
  <text style="stroke:none;fill:black;font-family:sans-serif;font-size:13;text-anchor:end;" transform="matrix(1 0 0 1 3036 1951)">Requires Xcode 26 or greater</text>
  <text id="descriptive-name" style="stroke:none;fill:black;font-family:sans-serif;font-size:13;text-anchor:end;" transform="matrix(1 0 0 1 3036 1969)">Generated from docs/brand/app-icon.svg</text>
  <text style="stroke:none;fill:black;font-family:sans-serif;font-size:13;text-anchor:end;" transform="matrix(1 0 0 1 3036 1987)">Typeset at 100.0 points</text>
  <text style="stroke:none;fill:black;font-family:sans-serif;font-size:13;" transform="matrix(1 0 0 1 263 726)">Small</text>
  <text style="stroke:none;fill:black;font-family:sans-serif;font-size:13;" transform="matrix(1 0 0 1 263 1156)">Medium</text>
  <text style="stroke:none;fill:black;font-family:sans-serif;font-size:13;" transform="matrix(1 0 0 1 263 1586)">Large</text>
 </g>
 <g id="Guides">
  <g id="H-reference" style="fill:#27AAE1;stroke:none;" transform="matrix(1 0 0 1 339 696)">
   <path d="M0.993654 0L3.63775 0L29.3281-67.1323L30.0303-67.1323L30.0303-70.459L28.1226-70.459ZM11.6885-24.4799L46.9815-24.4799L46.2315-26.7285L12.4385-26.7285ZM55.1196 0L57.7637 0L30.6382-70.459L29.4326-70.459L29.4326-67.1323Z"/>
  </g>
  <line id="Baseline-S" style="fill:none;stroke:#27AAE1;opacity:1;stroke-width:0.5;" x1="263" x2="3036" y1="696" y2="696"/>
  <line id="Capline-S" style="fill:none;stroke:#27AAE1;opacity:1;stroke-width:0.5;" x1="263" x2="3036" y1="625.541" y2="625.541"/>
  <g id="H-reference" style="fill:#27AAE1;stroke:none;" transform="matrix(1 0 0 1 339 1126)">
   <path d="M0.993654 0L3.63775 0L29.3281-67.1323L30.0303-67.1323L30.0303-70.459L28.1226-70.459ZM11.6885-24.4799L46.9815-24.4799L46.2315-26.7285L12.4385-26.7285ZM55.1196 0L57.7637 0L30.6382-70.459L29.4326-70.459L29.4326-67.1323Z"/>
  </g>
  <line id="Baseline-M" style="fill:none;stroke:#27AAE1;opacity:1;stroke-width:0.5;" x1="263" x2="3036" y1="1126" y2="1126"/>
  <line id="Capline-M" style="fill:none;stroke:#27AAE1;opacity:1;stroke-width:0.5;" x1="263" x2="3036" y1="1055.54" y2="1055.54"/>
  <g id="H-reference" style="fill:#27AAE1;stroke:none;" transform="matrix(1 0 0 1 339 1556)">
   <path d="M0.993654 0L3.63775 0L29.3281-67.1323L30.0303-67.1323L30.0303-70.459L28.1226-70.459ZM11.6885-24.4799L46.9815-24.4799L46.2315-26.7285L12.4385-26.7285ZM55.1196 0L57.7637 0L30.6382-70.459L29.4326-70.459L29.4326-67.1323Z"/>
  </g>
  <line id="Baseline-L" style="fill:none;stroke:#27AAE1;opacity:1;stroke-width:0.5;" x1="263" x2="3036" y1="1556" y2="1556"/>
  <line id="Capline-L" style="fill:none;stroke:#27AAE1;opacity:1;stroke-width:0.5;" x1="263" x2="3036" y1="1485.54" y2="1485.54"/>
  <line id="right-margin-Regular-M" style="fill:none;stroke:#00AEEF;stroke-width:0.5;opacity:1.0;" x1="1506.942" x2="1506.942" y1="1030.79" y2="1150.12"/>
  <line id="left-margin-Regular-M" style="fill:none;stroke:#00AEEF;stroke-width:0.5;opacity:1.0;" x1="1392.748" x2="1392.748" y1="1030.79" y2="1150.12"/>
  <line id="right-margin-Black-S" style="fill:none;stroke:#00AEEF;stroke-width:0.5;opacity:1.0;" x1="2979.077" x2="2979.077" y1="600.785" y2="720.121"/>
  <line id="left-margin-Black-S" style="fill:none;stroke:#00AEEF;stroke-width:0.5;opacity:1.0;" x1="2887.723" x2="2887.723" y1="600.785" y2="720.121"/>
  <line id="right-margin-Regular-S" style="fill:none;stroke:#00AEEF;stroke-width:0.5;opacity:1.0;" x1="1495.522" x2="1495.522" y1="600.785" y2="720.121"/>
  <line id="left-margin-Regular-S" style="fill:none;stroke:#00AEEF;stroke-width:0.5;opacity:1.0;" x1="1404.168" x2="1404.168" y1="600.785" y2="720.121"/>
  <line id="right-margin-Ultralight-S" style="fill:none;stroke:#00AEEF;stroke-width:0.5;opacity:1.0;" x1="605.388" x2="605.388" y1="600.785" y2="720.121"/>
  <line id="left-margin-Ultralight-S" style="fill:none;stroke:#00AEEF;stroke-width:0.5;opacity:1.0;" x1="514.034" x2="514.034" y1="600.785" y2="720.121"/>
 </g>
 <g id="Symbols">
  <g id="Regular-M" transform="matrix(1 0 0 1 1392.748 1126)">
   <path class="monochrome-0 multicolor-0:tintColor hierarchical-0:primary SFSymbolsPreviewWireframe" d="M99.693 -32.266C95.13 -13.965 69.268 -4.654 41.928 -11.471C14.589 -18.287 -3.875 -38.649 0.688 -56.951C5.251 -75.253 31.113 -84.563 58.453 -77.747C85.792 -70.93 104.256 -50.568 99.693 -32.266ZM89.056 -34.918C92.154 -47.345 77.265 -61.758 55.8 -67.11C34.336 -72.461 14.423 -66.726 11.325 -54.299C8.226 -41.872 23.115 -27.459 44.58 -22.107C66.045 -16.756 85.957 -22.491 89.056 -34.918ZM60.827 -41.957C59.362 -36.082 53.413 -32.507 47.538 -33.972C41.664 -35.436 38.089 -41.386 39.553 -47.261C41.018 -53.135 46.968 -56.71 52.842 -55.245C58.717 -53.781 62.292 -47.831 60.827 -41.957ZM38.034 -23.74L101.856 -7.827C104.793 -7.095 106.58 -4.12 105.848 -1.183C105.116 1.755 102.141 3.542 99.204 2.81L35.382 -13.103C32.445 -13.835 30.658 -16.81 31.39 -19.747C32.122 -22.684 35.097 -24.472 38.034 -23.74ZM103.084 -14.445L112.703 -4.225C113.982 -2.867 114.482 -0.952 114.03 0.857C113.579 2.667 112.239 4.123 110.472 4.722L97.181 9.23C94.314 10.202 91.202 8.667 90.23 5.8C89.258 2.933 90.793 -0.179 93.66 -1.152L98.877 -2.921L95.101 -6.932C93.027 -9.136 93.132 -12.605 95.336 -14.68C97.541 -16.755 101.009 -16.65 103.084 -14.445Z"/>
  </g>
  <g id="Black-S" transform="matrix(1 0 0 1 2887.723 696)">
   <path class="monochrome-0 multicolor-0:tintColor hierarchical-0:primary SFSymbolsPreviewWireframe" d="M79.754 -32.859C76.104 -18.218 55.414 -10.769 33.542 -16.222C11.671 -21.676 -3.1 -37.965 0.55 -52.607C4.201 -67.248 24.89 -74.696 46.762 -69.243C68.634 -63.79 83.405 -47.5 79.754 -32.859ZM71.245 -34.981C73.723 -44.922 61.812 -56.452 44.64 -60.734C27.468 -65.015 11.539 -60.427 9.06 -50.485C6.581 -40.543 18.492 -29.013 35.664 -24.732C52.836 -20.45 68.766 -25.039 71.245 -34.981ZM48.662 -40.611C47.49 -35.911 42.73 -33.052 38.031 -34.223C33.331 -35.395 30.471 -40.155 31.643 -44.854C32.814 -49.554 37.574 -52.414 42.274 -51.242C46.974 -50.071 49.834 -45.311 48.662 -40.611ZM30.428 -26.038L81.485 -13.308C83.834 -12.722 85.264 -10.342 84.678 -7.992C84.093 -5.642 81.713 -4.212 79.363 -4.798L28.306 -17.528C25.956 -18.114 24.526 -20.494 25.112 -22.844C25.698 -25.193 28.078 -26.623 30.428 -26.038ZM82.467 -18.602L90.163 -10.426C91.185 -9.34 91.585 -7.808 91.224 -6.36C90.863 -4.912 89.791 -3.747 88.378 -3.268L77.745 0.338C75.452 1.116 72.962 -0.113 72.184 -2.406C71.406 -4.699 72.635 -7.189 74.928 -7.967L79.101 -9.383L76.081 -12.591C74.421 -14.355 74.505 -17.13 76.269 -18.79C78.032 -20.45 80.808 -20.366 82.467 -18.602Z"/>
  </g>
  <g id="Regular-S" transform="matrix(1 0 0 1 1404.168 696)">
   <path class="monochrome-0 multicolor-0:tintColor hierarchical-0:primary SFSymbolsPreviewWireframe" d="M79.754 -32.859C76.104 -18.218 55.414 -10.769 33.542 -16.222C11.671 -21.676 -3.1 -37.965 0.55 -52.607C4.201 -67.248 24.89 -74.696 46.762 -69.243C68.634 -63.79 83.405 -47.5 79.754 -32.859ZM71.245 -34.981C73.723 -44.922 61.812 -56.452 44.64 -60.734C27.468 -65.015 11.539 -60.427 9.06 -50.485C6.581 -40.543 18.492 -29.013 35.664 -24.732C52.836 -20.45 68.766 -25.039 71.245 -34.981ZM48.662 -40.611C47.49 -35.911 42.73 -33.052 38.031 -34.223C33.331 -35.395 30.471 -40.155 31.643 -44.854C32.814 -49.554 37.574 -52.414 42.274 -51.242C46.974 -50.071 49.834 -45.311 48.662 -40.611ZM30.428 -26.038L81.485 -13.308C83.834 -12.722 85.264 -10.342 84.678 -7.992C84.093 -5.642 81.713 -4.212 79.363 -4.798L28.306 -17.528C25.956 -18.114 24.526 -20.494 25.112 -22.844C25.698 -25.193 28.078 -26.623 30.428 -26.038ZM82.467 -18.602L90.163 -10.426C91.185 -9.34 91.585 -7.808 91.224 -6.36C90.863 -4.912 89.791 -3.747 88.378 -3.268L77.745 0.338C75.452 1.116 72.962 -0.113 72.184 -2.406C71.406 -4.699 72.635 -7.189 74.928 -7.967L79.101 -9.383L76.081 -12.591C74.421 -14.355 74.505 -17.13 76.269 -18.79C78.032 -20.45 80.808 -20.366 82.467 -18.602Z"/>
  </g>
  <g id="Ultralight-S" transform="matrix(1 0 0 1 514.034 696)">
   <path class="monochrome-0 multicolor-0:tintColor hierarchical-0:primary SFSymbolsPreviewWireframe" d="M79.754 -32.859C76.104 -18.218 55.414 -10.769 33.542 -16.222C11.671 -21.676 -3.1 -37.965 0.55 -52.607C4.201 -67.248 24.89 -74.696 46.762 -69.243C68.634 -63.79 83.405 -47.5 79.754 -32.859ZM71.245 -34.981C73.723 -44.922 61.812 -56.452 44.64 -60.734C27.468 -65.015 11.539 -60.427 9.06 -50.485C6.581 -40.543 18.492 -29.013 35.664 -24.732C52.836 -20.45 68.766 -25.039 71.245 -34.981ZM48.662 -40.611C47.49 -35.911 42.73 -33.052 38.031 -34.223C33.331 -35.395 30.471 -40.155 31.643 -44.854C32.814 -49.554 37.574 -52.414 42.274 -51.242C46.974 -50.071 49.834 -45.311 48.662 -40.611ZM30.428 -26.038L81.485 -13.308C83.834 -12.722 85.264 -10.342 84.678 -7.992C84.093 -5.642 81.713 -4.212 79.363 -4.798L28.306 -17.528C25.956 -18.114 24.526 -20.494 25.112 -22.844C25.698 -25.193 28.078 -26.623 30.428 -26.038ZM82.467 -18.602L90.163 -10.426C91.185 -9.34 91.585 -7.808 91.224 -6.36C90.863 -4.912 89.791 -3.747 88.378 -3.268L77.745 0.338C75.452 1.116 72.962 -0.113 72.184 -2.406C71.406 -4.699 72.635 -7.189 74.928 -7.967L79.101 -9.383L76.081 -12.591C74.421 -14.355 74.505 -17.13 76.269 -18.79C78.032 -20.45 80.808 -20.366 82.467 -18.602Z"/>
  </g>
 </g>
</svg>
