<?xml version="1.0" encoding="UTF-8"?>
<svg width="3300" height="2200" viewBox="0 0 3300 2200" xmlns="http://www.w3.org/2000/svg">
 <g id="Notes">
  <rect height="2200" width="3300" fill="white" opacity="0"/>
  <text style="font-family: sans-serif; font-size: 40px;" x="150" y="2130">Quickie mark — orbital Q (glide). Generated from docs/brand/app-icon.svg. All subpaths share one shape; holes are wound opposite (nonzero rule).</text>
 </g>
 <g id="Guides">
  <line id="Capline-S" x1="263" y1="1056" x2="735" y2="1056" stroke="#27AAE1" stroke-width="0.5"/>
  <line id="Baseline-S" x1="263" y1="1556" x2="735" y2="1556" stroke="#27AAE1" stroke-width="0.5"/>
  <line id="Capline-M" x1="1391" y1="1056" x2="1863" y2="1056" stroke="#27AAE1" stroke-width="0.5"/>
  <line id="Baseline-M" x1="1391" y1="1556" x2="1863" y2="1556" stroke="#27AAE1" stroke-width="0.5"/>
  <line id="Capline-L" x1="2519" y1="1056" x2="2991" y2="1056" stroke="#27AAE1" stroke-width="0.5"/>
  <line id="Baseline-L" x1="2519" y1="1556" x2="2991" y2="1556" stroke="#27AAE1" stroke-width="0.5"/>
 </g>
 <g id="Symbols">
  <g id="Ultralight-S">
   <path d="M760.46 1337.66 A272.25 182.25 14 0 1 232.14 1205.94 A272.25 182.25 14 0 1 760.46 1337.66 Z M703.7 1323.51 A213.75 123.75 14 0 0 288.9 1220.09 A213.75 123.75 14 0 0 703.7 1323.51 Z M554.8 1271.8 A58.5 58.5 0 1 1 437.8 1271.8 A58.5 58.5 0 1 1 554.8 1271.8 Z M431.43 1383.16 L706.51 1451.75 L692.36 1508.51 L417.28 1439.93 Z M743.1 1491.02 L629.62 1536.93 L664.46 1397.21 Z"/>
  </g>
  <g id="Regular-S">
   <path d="M760.46 1337.66 A272.25 182.25 14 0 1 232.14 1205.94 A272.25 182.25 14 0 1 760.46 1337.66 Z M703.7 1323.51 A213.75 123.75 14 0 0 288.9 1220.09 A213.75 123.75 14 0 0 703.7 1323.51 Z M554.8 1271.8 A58.5 58.5 0 1 1 437.8 1271.8 A58.5 58.5 0 1 1 554.8 1271.8 Z M431.43 1383.16 L706.51 1451.75 L692.36 1508.51 L417.28 1439.93 Z M743.1 1491.02 L629.62 1536.93 L664.46 1397.21 Z"/>
  </g>
  <g id="Black-S">
   <path d="M760.46 1337.66 A272.25 182.25 14 0 1 232.14 1205.94 A272.25 182.25 14 0 1 760.46 1337.66 Z M703.7 1323.51 A213.75 123.75 14 0 0 288.9 1220.09 A213.75 123.75 14 0 0 703.7 1323.51 Z M554.8 1271.8 A58.5 58.5 0 1 1 437.8 1271.8 A58.5 58.5 0 1 1 554.8 1271.8 Z M431.43 1383.16 L706.51 1451.75 L692.36 1508.51 L417.28 1439.93 Z M743.1 1491.02 L629.62 1536.93 L664.46 1397.21 Z"/>
  </g>
  <g id="Regular-M">
   <path d="M1888.46 1337.66 A272.25 182.25 14 0 1 1360.14 1205.94 A272.25 182.25 14 0 1 1888.46 1337.66 Z M1831.7 1323.51 A213.75 123.75 14 0 0 1416.9 1220.09 A213.75 123.75 14 0 0 1831.7 1323.51 Z M1682.8 1271.8 A58.5 58.5 0 1 1 1565.8 1271.8 A58.5 58.5 0 1 1 1682.8 1271.8 Z M1559.43 1383.16 L1834.51 1451.75 L1820.36 1508.51 L1545.28 1439.93 Z M1871.1 1491.02 L1757.62 1536.93 L1792.46 1397.21 Z"/>
  </g>
 </g>
</svg>
